<?xml version="1.0" encoding="UTF-8" standalone="no"?>
<!-- Created with Inkscape (http://www.inkscape.org/) -->

<svg
   xmlns:dc="http://purl.org/dc/elements/1.1/"
   xmlns:cc="http://creativecommons.org/ns#"
   xmlns:rdf="http://www.w3.org/1999/02/22-rdf-syntax-ns#"
   xmlns:svg="http://www.w3.org/2000/svg"
   xmlns="http://www.w3.org/2000/svg"
   xmlns:xlink="http://www.w3.org/1999/xlink"
   xmlns:sodipodi="http://sodipodi.sourceforge.net/DTD/sodipodi-0.dtd"
   xmlns:inkscape="http://www.inkscape.org/namespaces/inkscape"
   width="659.48206"
   height="126.22623"
   id="svg3064"
   version="1.1"
   inkscape:version="0.48.4 r9939"
   sodipodi:docname="banner.svg">
  <defs
     id="defs3066">
    <linearGradient
       id="linearGradient3957">
      <stop
         style="stop-color:#333333;stop-opacity:1;"
         offset="0"
         id="stop3959" />
      <stop
         id="stop3965"
         offset="0.5"
         style="stop-color:#333333;stop-opacity:0.49803922;" />
      <stop
         style="stop-color:#333333;stop-opacity:0;"
         offset="1"
         id="stop3961" />
    </linearGradient>
    <linearGradient
       id="linearGradient3919">
      <stop
         style="stop-color:#808080;stop-opacity:1;"
         offset="0"
         id="stop3921" />
      <stop
         id="stop3929"
         offset="0.25"
         style="stop-color:#808080;stop-opacity:0.74901961;" />
      <stop
         id="stop3927"
         offset="0.5"
         style="stop-color:#808080;stop-opacity:0.49803922;" />
      <stop
         style="stop-color:#808080;stop-opacity:0;"
         offset="1"
         id="stop3923" />
    </linearGradient>
    <clipPath
       id="clipPath3340">
      <path
         d="m 0,841.89 1190.55,0 L 1190.55,0 0,0 0,841.89 z"
         id="path3342"
         inkscape:connector-curvature="0" />
    </clipPath>
    <clipPath
       id="clipPath3092">
      <path
         d="m 0,841.89 1190.55,0 L 1190.55,0 0,0 0,841.89 z"
         id="path3094"
         inkscape:connector-curvature="0" />
    </clipPath>
    <linearGradient
       inkscape:collect="always"
       xlink:href="#linearGradient3957"
       id="linearGradient3963"
       x1="54.07362"
       y1="239.0854"
       x2="713.55566"
       y2="239.0854"
       gradientUnits="userSpaceOnUse" />
    <linearGradient
       inkscape:collect="always"
       xlink:href="#linearGradient3957-8"
       id="linearGradient3963-9"
       x1="54.07362"
       y1="239.0854"
       x2="713.55566"
       y2="239.0854"
       gradientUnits="userSpaceOnUse"
       gradientTransform="translate(0.25897556,205.25597)" />
    <linearGradient
       id="linearGradient3957-8">
      <stop
         style="stop-color:#333333;stop-opacity:1;"
         offset="0"
         id="stop3959-5" />
      <stop
         id="stop3965-8"
         offset="0.5"
         style="stop-color:#333333;stop-opacity:0.49803922;" />
      <stop
         style="stop-color:#333333;stop-opacity:0;"
         offset="1"
         id="stop3961-3" />
    </linearGradient>
    <clipPath
       id="clipPath3340-7">
      <path
         d="m 0,841.89 1190.55,0 L 1190.55,0 0,0 0,841.89 z"
         id="path3342-6"
         inkscape:connector-curvature="0" />
    </clipPath>
    <clipPath
       id="clipPath4022">
      <path
         d="m 0,841.89 1190.55,0 L 1190.55,0 0,0 0,841.89 z"
         id="path4024"
         inkscape:connector-curvature="0" />
    </clipPath>
  </defs>
  <sodipodi:namedview
     id="base"
     pagecolor="#ffffff"
     bordercolor="#666666"
     borderopacity="1.0"
     inkscape:pageopacity="0.0"
     inkscape:pageshadow="2"
     inkscape:zoom="1.4"
     inkscape:cx="341.72293"
     inkscape:cy="94.407014"
     inkscape:document-units="px"
     inkscape:current-layer="layer1"
     showgrid="false"
     inkscape:window-width="1920"
     inkscape:window-height="1056"
     inkscape:window-x="0"
     inkscape:window-y="24"
     inkscape:window-maximized="1"
     fit-margin-top="0"
     fit-margin-left="0"
     fit-margin-right="0"
     fit-margin-bottom="0" />
  <metadata
     id="metadata3069">
    <rdf:RDF>
      <cc:Work
         rdf:about="">
        <dc:format>image/svg+xml</dc:format>
        <dc:type
           rdf:resource="http://purl.org/dc/dcmitype/StillImage" />
        <dc:title />
      </cc:Work>
    </rdf:RDF>
  </metadata>
  <g
     inkscape:label="Layer 1"
     inkscape:groupmode="layer"
     id="layer1"
     transform="translate(-54.073619,-154.81872)">
    <g
       style="fill:#a94040;fill-opacity:1"
       id="g3336"
       transform="matrix(0.15108144,0,0,-0.15108144,113.69532,260.05492)">
      <g
         style="fill:#a94040;fill-opacity:1"
         id="g3338"
         clip-path="url(#clipPath3340)">
        <g
           style="fill:#a94040;fill-opacity:1"
           id="g3344"
           transform="translate(479.625,63.6318)">
          <path
             inkscape:connector-curvature="0"
             style="fill:#a94040;fill-opacity:1;fill-rule:evenodd;stroke:none"
             id="path3346"
             d="m 0,0 c -4.206,-3.23 -9.739,-4.173 -10.999,-3.999 -7.959,3.603 -23.367,9.229 -14.998,19.997 20.98,4.018 25.619,24.375 33.996,40.995 -4.84,19.547 -19.27,36.164 -6.999,50.993 -0.659,25.542 -1.387,43.791 8.999,62.993 -4.015,-0.652 -6.823,-2.51 -9.999,-4 -24.467,-1.139 -57.08,-11.806 -87.989,-12.999 -36.649,-1.413 -69.405,7.026 -99.988,17.999 -1.986,2.012 -1.986,2.012 -1.999,3.999 3.204,9.493 29.444,4.931 41.995,3 14.509,-2.233 29.756,-5.875 42.994,-5.999 40.804,-0.382 76.895,17.534 111.986,24.997 -24.452,25.825 -26.061,62.251 -56.993,78.99 -3.776,2.455 -11.846,15.296 -13.276,16.767 -1.678,1.727 -1.907,2.664 -4.721,5.23 -2.04,1.859 -10.999,9.909 -15.998,11.998 -4.094,1.71 -3.156,1.397 -6.594,2.772 -2.637,0.305 -4.375,1.244 -6.187,0.728 -1.688,0 -1.938,0.125 -5,-1.5 -2.932,0.067 -3.313,-2.04 -4.217,-2 -5.099,-3.232 -10.4,-6.264 -16.997,-7.999 -40.433,9.509 -77.363,20.796 -111.987,39.995 -18.237,1.705 -32.018,8.915 -49.993,5 -4.014,-2.201 -5.78,-7.684 -10.999,-8 -4.052,-0.244 -4.326,2.134 -6.597,2.119 -4.26,4.328 -12.065,9.549 -18.4,13.879 -2.998,10.716 -4.331,21.466 0.701,25.556 4.301,-0.174 3.801,1.91 9.298,1.441 5.412,12.853 19.465,10.272 30.996,4 6.622,2.638 11.734,0.057 15.32,-0.531 5.25,-1.688 10.021,1.166 11.677,-4.469 32.99,-3.785 59.109,-20.182 95.988,-18.997 3.566,4.099 5.87,9.461 9.999,12.998 5.69,13.801 2.126,27.293 6.999,36.995 -12.706,8.945 -18.476,27.984 -26.997,42.995 6.044,23.963 -22.341,23.805 -29.996,38.995 0.955,0.139 2.733,1.473 1.999,1 8.974,5.786 28.852,-2.891 38.996,2 5.041,4.67 8.973,4.312 15.998,6.999 1.941,1.317 0,0 2.941,3.15 2.083,1.75 1.902,1.414 3.833,2.75 1.875,3.77 2.751,4 6.084,7.334 3.596,3.597 5.427,7.855 4.979,7.187 0.397,0.592 2.788,5.145 3.354,6.146 0.413,0.729 1.751,4.252 1.75,4.25 0.482,2.507 0.166,1.344 2.083,5.761 0.838,1.034 0.204,1.146 2.75,4.656 3.125,9.375 7.62,18.255 12.221,18.758 7.398,-12.913 7.564,-28.936 4.279,-40.133 1.042,-2.459 0.417,-0.917 1,-2.042 1.656,-0.951 0.654,-0.458 2.313,-1.521 2.355,0.023 2.812,-0.062 5.406,-1.298 14.337,-18.325 30.404,-34.921 51.993,-45.994 0,22.529 4.413,56.677 -4.999,74.991 -0.558,1.888 -7.015,12.438 -6.463,20.989 -0.083,2.75 -3.583,10.166 -3.75,19.75 -5.5,4.75 -3.771,12.48 -11.625,13.625 -0.631,3.163 -2.548,9.829 0.285,14.579 2.125,1.876 4.924,8.712 9.507,13.546 6.333,1.5 10.046,1.5 15.046,1.5 2.037,-0.959 5.329,-0.75 8.079,-1.542 2.768,-0.525 2.5,-0.958 3.919,-1.458 7.288,-6.711 13.539,-22.667 17.998,-23.997 1.875,-1.003 2.375,-2.503 3.458,-3.753 4.917,-11.192 -7.892,-12.53 -7.458,-23.243 0.408,-10.048 5.872,-27.672 7.999,-39.995 6.405,-37.096 23.277,-76.736 15.999,-122.985 -0.165,-1.902 0.377,-0.736 1.71,-4.611 1.498,-19.964 8.314,-31.706 19.287,-46.382 5.665,-7.578 12.213,-16.5 17.998,-22.998 4.501,-5.057 7.071,-7.936 10.999,-12.998 6.486,-8.363 16.278,-13.255 22.997,-20.997 3.599,-4.15 7.301,-10.392 11.998,-15.998 5.388,-6.432 7.426,-12.71 10.999,-18.998 5.128,-9.028 13.015,-15.32 17.997,-24.997 10.741,-11.257 20.055,-23.941 30.996,-34.995 3.207,-3.916 19.522,-18.189 23.188,-24.428 1.625,-1.75 1.908,-4.34 1.625,-5.875 -0.174,-4.451 -0.609,-9.004 0.375,-10.375 2.75,-3.188 4.121,-4.376 10.809,-5.317 5.679,-0.798 14.709,-4.79 21.996,-6 10.107,-1.676 22.15,0.675 32.32,1.661 8.582,-3.803 7.654,-6.68 8.676,-9.66 1.199,-4.028 -2.02,-5.497 -1.489,-8.653 -0.402,-0.525 0.19,-1.081 -1.187,-1.125 1.904,-3.644 -2.707,-10.831 -10.324,-7.219 -1.028,-2.97 -2.285,-5.713 -5.998,-6 -22.008,10.99 -51.153,14.84 -76.991,21.998 -3.937,5.107 -6.105,3.524 -11.998,9.998 -26.576,-10.918 -61.995,-11.871 -79.99,-28.996 -2.787,-20.211 -28.897,-22.868 -28.575,-46.187 -0.618,-3.985 -1.452,-6.549 -3.25,-11.5 -3.869,-5.341 -3.89,-10.688 -6.125,-13.709 -0.718,-0.51 -1.291,-4.791 -1.045,-6.594 1.295,-7.947 -1.826,-8.112 -2.455,-15.197 -0.125,-4.375 -1.25,-3.75 -10.5,-13.75" />
        </g>
      </g>
    </g>
    <g
       style="font-size:20px;font-style:normal;font-variant:normal;font-weight:normal;font-stretch:normal;line-height:125%;letter-spacing:0px;word-spacing:0px;fill:#333333;fill-opacity:1;stroke:none;font-family:PT Sans;-inkscape-font-specification:PT Sans"
       id="text3072">
      <path
         d="m 67.09288,206.28142 c -4e-6,-5.76169 0.618485,-10.53056 1.855469,-14.30664 1.236971,-3.776 3.222646,-6.77079 5.957031,-8.98438 2.73436,-2.21349 6.282534,-3.75971 10.644531,-4.63867 4.361952,-0.9114 9.667936,-1.36713 15.917969,-1.36719 6.24995,6e-5 11.55594,0.45579 15.91797,1.36719 4.36192,0.87896 7.91009,2.42518 10.64453,4.63867 2.73431,2.21359 4.71998,5.20838 5.95703,8.98438 1.23691,3.77608 1.8554,8.54495 1.85547,14.30664 -7e-5,5.76174 -0.61856,10.54689 -1.85547,14.35547 -1.23705,3.8086 -3.22272,6.83594 -5.95703,9.08203 -2.73444,2.24609 -6.28261,3.84114 -10.64453,4.78515 -4.36203,0.91146 -9.66802,1.36719 -15.91797,1.36719 -6.250033,0 -11.556017,-0.45573 -15.917969,-1.36719 -4.361997,-0.94401 -7.910171,-2.53906 -10.644531,-4.78515 -2.734385,-2.24609 -4.72006,-5.27343 -5.957031,-9.08203 -1.236984,-3.80858 -1.855473,-8.59373 -1.855469,-14.35547 m 9.375,0 c -1.4e-5,3.12502 0.113918,5.84312 0.341797,8.15429 0.22785,2.31122 0.651027,4.2969 1.269531,5.95704 0.651026,1.66016 1.546207,3.01108 2.685547,4.05273 1.139304,1.04168 2.636698,1.87175 4.492188,2.49023 1.855444,0.6185 4.101535,1.04168 6.738281,1.26954 2.669239,0.22787 5.826787,0.3418 9.472656,0.34179 3.12496,1e-5 5.90816,-0.0651 8.34961,-0.19531 2.47391,-0.16275 4.62234,-0.50455 6.44531,-1.02539 1.85542,-0.52083 3.43419,-1.25325 4.73633,-2.19727 1.30202,-0.97655 2.34369,-2.29491 3.125,-3.95507 0.81374,-1.66014 1.39968,-3.69465 1.75781,-6.10352 0.39056,-2.44138 0.58588,-5.37107 0.58594,-8.78906 -6e-5,-3.35283 -0.19538,-6.20114 -0.58594,-8.54492 -0.35813,-2.37627 -0.94407,-4.36194 -1.75781,-5.95704 -0.78131,-1.595 -1.82298,-2.84826 -3.125,-3.75976 -1.30214,-0.94396 -2.88091,-1.64383 -4.73633,-2.09961 -1.82297,-0.48823 -3.9714,-0.79748 -6.44531,-0.92773 -2.44145,-0.13016 -5.22465,-0.19527 -8.34961,-0.19532 -3.125036,5e-5 -5.924512,0.0652 -8.398437,0.19532 -2.441435,0.13025 -4.58987,0.4395 -6.445313,0.92773 -1.822939,0.45578 -3.385437,1.15565 -4.6875,2.09961 -1.302101,0.9115 -2.360043,2.16476 -3.173828,3.75976 -0.781265,1.5951 -1.367202,3.58077 -1.757812,5.95704 -0.358088,2.34378 -0.537124,5.19209 -0.53711,8.54492"
         style="font-size:100px;font-family:Michroma;-inkscape-font-specification:Michroma;fill:#333333;fill-opacity:1"
         id="path3106" />
      <path
         d="m 206.15538,234.79704 -9.375,0 0,-31.73828 c -6e-5,-3.38538 -0.22792,-6.23368 -0.68359,-8.54492 -0.42324,-2.34371 -1.31842,-4.23173 -2.68555,-5.66406 -1.33469,-1.43225 -3.23898,-2.45764 -5.71289,-3.07617 -2.44145,-0.651 -5.66411,-0.97652 -9.66797,-0.97657 -4.39456,5e-5 -8.00784,0.3744 -10.83984,1.12305 -2.83206,0.71619 -5.06187,1.74158 -6.68946,3.07617 -1.62762,1.30213 -2.76694,2.8809 -3.41797,4.73633 -0.6185,1.85551 -0.92775,3.92256 -0.92773,6.20117 l 0,34.86328 -9.375,0 0,-56.25 9.375,0 0,8.88672 c 0.0325,-0.0976 0.17902,-0.42313 0.43945,-0.97656 0.2604,-0.55334 0.71613,-1.20438 1.36719,-1.95313 0.68358,-0.78119 1.59503,-1.61127 2.73438,-2.49023 1.17185,-0.87885 2.66924,-1.69265 4.49218,-2.44141 1.85545,-0.74864 4.08526,-1.36713 6.68946,-1.85547 2.60413,-0.48822 5.69657,-0.73236 9.27734,-0.73242 3.51558,6e-5 6.5592,0.22793 9.13086,0.6836 2.60411,0.42323 4.81765,1.07427 6.64062,1.95312 1.85542,0.84641 3.35281,1.92063 4.49219,3.22266 1.17182,1.26958 2.09955,2.73442 2.78321,4.39453 0.55332,-0.87886 1.41595,-1.90425 2.58789,-3.07617 1.1718,-1.17183 2.79941,-2.29487 4.88281,-3.36914 2.11581,-1.07417 4.75253,-1.96935 7.91015,-2.68555 3.15747,-0.74864 7.01489,-1.12299 11.57227,-1.12305 3.7434,6e-5 6.94977,0.26048 9.61914,0.78125 2.70172,0.48834 4.98036,1.23704 6.83594,2.2461 1.85536,0.97661 3.33648,2.19731 4.44336,3.66211 1.13921,1.46489 2.00184,3.17387 2.58789,5.12695 0.61837,1.92062 1.02527,4.08533 1.2207,6.49414 0.1952,2.37634 0.29285,4.96423 0.29297,7.76367 l 0,31.73828 -9.375,0 0,-31.73828 c -1.1e-4,-3.38538 -0.22797,-6.23368 -0.68359,-8.54492 -0.42329,-2.34371 -1.31847,-4.23173 -2.68555,-5.66406 -1.33474,-1.43225 -3.23903,-2.45764 -5.71289,-3.07617 -2.4415,-0.651 -5.66416,-0.97652 -9.66797,-0.97657 -4.39461,5e-5 -8.00789,0.3744 -10.83984,1.12305 -2.83211,0.71619 -5.06192,1.74158 -6.68946,3.07617 -1.62767,1.30213 -2.76699,2.8809 -3.41797,4.73633 -0.61855,1.85551 -0.9278,3.92256 -0.92773,6.20117 l 0,34.86328"
         style="font-size:100px;font-family:Michroma;-inkscape-font-specification:Michroma;fill:#333333;fill-opacity:1"
         id="path3108" />
      <path
         d="m 301.46788,184.79704 c -3.64587,5e-5 -6.80342,0.11399 -9.47266,0.3418 -2.63674,0.22791 -4.88283,0.63481 -6.73828,1.2207 -1.85549,0.58599 -3.36916,1.39979 -4.54101,2.44141 -1.13934,1.04171 -2.03452,2.37634 -2.68555,4.00391 -0.6185,1.62764 -1.04168,3.59704 -1.26953,5.9082 -0.19533,2.27868 -0.29298,4.96422 -0.29297,8.05664 -10e-6,3.05992 0.0976,5.72919 0.29297,8.00781 0.22785,2.24611 0.65103,4.18296 1.26953,5.81055 0.65103,1.59506 1.54621,2.91342 2.68555,3.95508 1.17185,1.04167 2.68552,1.85547 4.54101,2.4414 1.85545,0.58595 4.10154,0.99285 6.73828,1.22071 2.66924,0.22787 5.82679,0.3418 9.47266,0.34179 3.12496,1e-5 5.90816,-0.0651 8.34961,-0.19531 2.44136,-0.16275 4.58979,-0.48827 6.44531,-0.97656 1.85542,-0.52083 3.41791,-1.25325 4.6875,-2.19727 1.30203,-0.97655 2.35997,-2.26236 3.17383,-3.85742 0.81374,-1.62759 1.39968,-3.62954 1.75781,-6.00586 0.39056,-2.40883 0.58588,-5.30596 0.58594,-8.69141 -6e-5,-3.38538 -0.19538,-6.28251 -0.58594,-8.6914 -0.35813,-2.40882 -0.94407,-4.41077 -1.75781,-6.00586 -0.81386,-1.62756 -1.8718,-2.91337 -3.17383,-3.85742 -1.26959,-0.94397 -2.83208,-1.66011 -4.6875,-2.14844 -1.85552,-0.48823 -4.00395,-0.79748 -6.44531,-0.92773 -2.44145,-0.13016 -5.22465,-0.19527 -8.34961,-0.19532 m 34.375,42.1875 c -7e-5,5.46876 -0.61856,10.00977 -1.85547,13.62305 -1.23705,3.61327 -3.22272,6.52668 -5.95703,8.74023 -2.73444,2.24608 -6.28261,3.80858 -10.64453,4.6875 -4.36203,0.87889 -9.66802,1.31834 -15.91797,1.31836 -5.85941,-2e-5 -10.79104,-0.26043 -14.79492,-0.78125 -3.97138,-0.52085 -7.17775,-1.35093 -9.61914,-2.49023 -2.44142,-1.10679 -4.19923,-2.55535 -5.27344,-4.3457 -1.04167,-1.75783 -1.56251,-3.90626 -1.5625,-6.44532 l 9.375,0 c -2e-5,1.26953 0.3255,2.31119 0.97656,3.125 0.68358,0.8138 1.85545,1.44856 3.51563,1.9043 1.66013,0.45572 3.88995,0.76496 6.68945,0.92773 2.832,0.1953 6.39645,0.29296 10.69336,0.29297 4.68746,-1e-5 8.62625,-0.17905 11.81641,-0.53711 3.19005,-0.32553 5.76166,-1.12305 7.71484,-2.39257 1.95306,-1.26954 3.3528,-3.19011 4.19922,-5.76172 0.84629,-2.57162 1.26947,-6.00586 1.26953,-10.30274 -0.45579,0.78126 -1.18821,1.62761 -2.19727,2.53907 -0.97662,0.91146 -2.42519,1.75781 -4.3457,2.53906 -1.88807,0.78125 -4.32948,1.43229 -7.32422,1.95312 -2.99484,0.52083 -6.70577,0.78125 -11.13281,0.78125 -6.25003,0 -11.55602,-0.472 -15.91797,-1.41601 -4.362,-0.91146 -7.91017,-2.49023 -10.64453,-4.73633 -2.73438,-2.24609 -4.72006,-5.27343 -5.95703,-9.08203 -1.23699,-3.80858 -1.85547,-8.59373 -1.85547,-14.35547 0,-5.85934 0.61848,-10.7096 1.85547,-14.55078 1.23697,-3.8411 3.22265,-6.88472 5.95703,-9.13086 2.73436,-2.24604 6.28253,-3.82482 10.64453,-4.73633 4.36195,-0.9114 9.66794,-1.36713 15.91797,-1.36719 4.42704,6e-5 8.13797,0.22793 11.13281,0.6836 2.99474,0.45578 5.43615,1.02544 7.32422,1.70898 1.92051,0.68365 3.36908,1.43235 4.3457,2.24609 1.00906,0.78131 1.74148,1.49745 2.19727,2.14844 l 0,-5.22461 9.375,0 0,48.4375"
         style="font-size:100px;font-family:Michroma;-inkscape-font-specification:Michroma;fill:#333333;fill-opacity:1"
         id="path3110" />
      <path
         d="m 348.34288,201.98454 37.5,0 0,7.8125 -37.5,0 0,-7.8125"
         style="font-size:100px;font-family:Michroma;-inkscape-font-specification:Michroma;fill:#333333;fill-opacity:1"
         id="path3112" />
      <path
         d="m 453.03038,209.79704 c -6e-5,4.78518 -0.39069,8.78908 -1.17187,12.01172 -0.78131,3.19012 -2.09967,5.74545 -3.95508,7.66602 -1.82297,1.92057 -4.23183,3.28776 -7.22657,4.10156 -2.99483,0.8138 -6.68949,1.2207 -11.08398,1.2207 -4.26436,0 -7.84508,-0.32552 -10.74219,-0.97656 -2.89716,-0.65104 -5.2409,-1.75781 -7.03125,-3.32031 -1.79038,-1.5625 -3.07619,-3.64583 -3.85742,-6.25 -0.78126,-2.60416 -1.17189,-5.85936 -1.17187,-9.76563 l 0,-28.22265 -11.57227,0 0,-7.71485 11.57227,0 0,-15.38086 9.375,0 0,15.38086 35.30273,0 0,7.71485 -35.30273,0 0,28.22265 c -3e-5,3.12502 0.22784,5.53387 0.68359,7.22657 0.48826,1.69272 1.25323,2.92969 2.29492,3.71093 1.04164,0.78126 2.40883,1.23699 4.10156,1.36719 1.72523,0.13022 3.82484,0.19532 6.29883,0.19531 1.95309,1e-5 3.69462,-0.0325 5.22461,-0.0977 1.56246,-0.0651 2.91337,-0.26041 4.05274,-0.58594 1.17182,-0.35806 2.16466,-0.8789 2.97851,-1.5625 0.81375,-0.71614 1.46479,-1.70897 1.95313,-2.97852 0.52078,-1.26951 0.89513,-2.86456 1.12304,-4.78515 0.22781,-1.95311 0.34175,-4.34568 0.3418,-7.17774 l 7.8125,0"
         style="font-size:100px;font-family:Michroma;-inkscape-font-specification:Michroma;fill:#333333;fill-opacity:1"
         id="path3114" />
      <path
         d="m 460.84288,206.28142 c 0,-5.76169 0.61848,-10.53056 1.85547,-14.30664 1.23697,-3.776 3.22265,-6.77079 5.95703,-8.98438 2.73436,-2.21349 6.28253,-3.75971 10.64453,-4.63867 4.36195,-0.9114 9.66794,-1.36713 15.91797,-1.36719 6.24995,6e-5 11.55594,0.45579 15.91797,1.36719 4.36192,0.87896 7.91009,2.42518 10.64453,4.63867 2.73431,2.21359 4.71998,5.20838 5.95703,8.98438 1.23691,3.77608 1.8554,8.54495 1.85547,14.30664 -7e-5,5.76174 -0.61856,10.54689 -1.85547,14.35547 -1.23705,3.8086 -3.22272,6.83594 -5.95703,9.08203 -2.73444,2.24609 -6.28261,3.84114 -10.64453,4.78515 -4.36203,0.91146 -9.66802,1.36719 -15.91797,1.36719 -6.25003,0 -11.55602,-0.45573 -15.91797,-1.36719 -4.362,-0.94401 -7.91017,-2.53906 -10.64453,-4.78515 -2.73438,-2.24609 -4.72006,-5.27343 -5.95703,-9.08203 -1.23699,-3.80858 -1.85547,-8.59373 -1.85547,-14.35547 m 9.375,0 c -10e-6,3.12502 0.11392,5.84312 0.3418,8.15429 0.22785,2.31122 0.65102,4.2969 1.26953,5.95704 0.65102,1.66016 1.54621,3.01108 2.68555,4.05273 1.1393,1.04168 2.63669,1.87175 4.49218,2.49023 1.85545,0.6185 4.10154,1.04168 6.73828,1.26954 2.66924,0.22787 5.82679,0.3418 9.47266,0.34179 3.12496,1e-5 5.90816,-0.0651 8.34961,-0.19531 2.47391,-0.16275 4.62234,-0.50455 6.44531,-1.02539 1.85542,-0.52083 3.43419,-1.25325 4.73633,-2.19727 1.30202,-0.97655 2.34369,-2.29491 3.125,-3.95507 0.81374,-1.66014 1.39968,-3.69465 1.75781,-6.10352 0.39056,-2.44138 0.58588,-5.37107 0.58594,-8.78906 -6e-5,-3.35283 -0.19538,-6.20114 -0.58594,-8.54492 -0.35813,-2.37627 -0.94407,-4.36194 -1.75781,-5.95704 -0.78131,-1.595 -1.82298,-2.84826 -3.125,-3.75976 -1.30214,-0.94396 -2.88091,-1.64383 -4.73633,-2.09961 -1.82297,-0.48823 -3.9714,-0.79748 -6.44531,-0.92773 -2.44145,-0.13016 -5.22465,-0.19527 -8.34961,-0.19532 -3.12504,5e-5 -5.92451,0.0652 -8.39844,0.19532 -2.44143,0.13025 -4.58987,0.4395 -6.44531,0.92773 -1.82294,0.45578 -3.38544,1.15565 -4.6875,2.09961 -1.3021,0.9115 -2.36004,2.16476 -3.17383,3.75976 -0.78126,1.5951 -1.3672,3.58077 -1.75781,5.95704 -0.35809,2.34378 -0.53712,5.19209 -0.53711,8.54492"
         style="font-size:100px;font-family:Michroma;-inkscape-font-specification:Michroma;fill:#333333;fill-opacity:1"
         id="path3116" />
      <path
         d="m 538.96788,206.28142 c 0,-5.76169 0.61848,-10.53056 1.85547,-14.30664 1.23697,-3.776 3.22265,-6.77079 5.95703,-8.98438 2.73436,-2.21349 6.28253,-3.75971 10.64453,-4.63867 4.36195,-0.9114 9.66794,-1.36713 15.91797,-1.36719 6.24995,6e-5 11.55594,0.45579 15.91797,1.36719 4.36192,0.87896 7.91009,2.42518 10.64453,4.63867 2.73431,2.21359 4.71998,5.20838 5.95703,8.98438 1.23691,3.77608 1.8554,8.54495 1.85547,14.30664 -7e-5,5.76174 -0.61856,10.54689 -1.85547,14.35547 -1.23705,3.8086 -3.22272,6.83594 -5.95703,9.08203 -2.73444,2.24609 -6.28261,3.84114 -10.64453,4.78515 -4.36203,0.91146 -9.66802,1.36719 -15.91797,1.36719 -6.25003,0 -11.55602,-0.45573 -15.91797,-1.36719 -4.362,-0.94401 -7.91017,-2.53906 -10.64453,-4.78515 -2.73438,-2.24609 -4.72006,-5.27343 -5.95703,-9.08203 -1.23699,-3.80858 -1.85547,-8.59373 -1.85547,-14.35547 m 9.375,0 c -1e-5,3.12502 0.11392,5.84312 0.3418,8.15429 0.22785,2.31122 0.65102,4.2969 1.26953,5.95704 0.65102,1.66016 1.54621,3.01108 2.68555,4.05273 1.1393,1.04168 2.63669,1.87175 4.49218,2.49023 1.85545,0.6185 4.10154,1.04168 6.73828,1.26954 2.66924,0.22787 5.82679,0.3418 9.47266,0.34179 3.12496,1e-5 5.90816,-0.0651 8.34961,-0.19531 2.47391,-0.16275 4.62234,-0.50455 6.44531,-1.02539 1.85542,-0.52083 3.43419,-1.25325 4.73633,-2.19727 1.30202,-0.97655 2.34369,-2.29491 3.125,-3.95507 0.81374,-1.66014 1.39968,-3.69465 1.75781,-6.10352 0.39056,-2.44138 0.58588,-5.37107 0.58594,-8.78906 -6e-5,-3.35283 -0.19538,-6.20114 -0.58594,-8.54492 -0.35813,-2.37627 -0.94407,-4.36194 -1.75781,-5.95704 -0.78131,-1.595 -1.82298,-2.84826 -3.125,-3.75976 -1.30214,-0.94396 -2.88091,-1.64383 -4.73633,-2.09961 -1.82297,-0.48823 -3.9714,-0.79748 -6.44531,-0.92773 -2.44145,-0.13016 -5.22465,-0.19527 -8.34961,-0.19532 -3.12504,5e-5 -5.92451,0.0652 -8.39844,0.19532 -2.44143,0.13025 -4.58987,0.4395 -6.44531,0.92773 -1.82294,0.45578 -3.38544,1.15565 -4.6875,2.09961 -1.3021,0.9115 -2.36004,2.16476 -3.17383,3.75976 -0.78126,1.5951 -1.3672,3.58077 -1.75781,5.95704 -0.35809,2.34378 -0.53712,5.19209 -0.53711,8.54492"
         style="font-size:100px;font-family:Michroma;-inkscape-font-specification:Michroma;fill:#333333;fill-opacity:1"
         id="path3118" />
      <path
         d="m 621.78038,159.79704 9.375,0 0,75 -9.375,0 0,-75"
         style="font-size:100px;font-family:Michroma;-inkscape-font-specification:Michroma;fill:#333333;fill-opacity:1"
         id="path3120" />
      <path
         d="m 679.59288,209.16228 c 3.64579,2e-5 6.75451,0.0651 9.32617,0.19531 2.57157,0.0977 4.72,0.29299 6.44531,0.58594 1.75776,0.26044 3.14122,0.60224 4.1504,1.02539 1.00905,0.4232 1.77402,1.05796 2.29492,1.90429 0.52077,0.81383 0.84629,1.64391 0.97656,2.49024 0.1627,0.81382 0.24408,1.75783 0.24414,2.83203 -6e-5,1.17189 -0.0814,2.24611 -0.24414,3.22266 -0.13027,0.94402 -0.47207,1.80665 -1.02539,2.58789 -0.55345,0.78126 -1.36725,1.44857 -2.44141,2.00195 -1.07427,0.55339 -2.53912,1.0254 -4.39453,1.41602 -1.85552,0.39063 -4.16672,0.6836 -6.93359,0.8789 -2.73442,0.16277 -6.05473,0.24415 -9.96094,0.24414 -4.29691,1e-5 -7.86136,-0.11392 -10.69336,-0.34179 -2.7995,-0.26041 -5.02932,-0.73242 -6.68945,-1.41602 -1.66018,-0.68358 -2.83205,-1.62759 -3.51563,-2.83203 -0.65105,-1.23697 -0.97658,-2.83202 -0.97656,-4.78516 l -9.375,0 c -1e-5,2.96226 0.52083,5.46876 1.5625,7.51953 1.07421,2.05079 2.83202,3.72722 5.27344,5.0293 2.44139,1.26953 5.64777,2.19727 9.61914,2.7832 4.00388,0.58594 8.93551,0.87891 14.79492,0.87891 4.68746,0 8.78902,-0.14648 12.30469,-0.43945 3.54812,-0.26042 6.59174,-0.66732 9.13086,-1.22071 2.539,-0.58593 4.63861,-1.33463 6.29883,-2.24609 1.69264,-0.94401 3.02727,-2.05078 4.0039,-3.32031 0.97649,-1.30208 1.66009,-2.7832 2.05078,-4.44336 0.39056,-1.6927 0.58587,-3.59699 0.58594,-5.71289 -7e-5,-2.11587 -0.19538,-3.97134 -0.58594,-5.56641 -0.39069,-1.62758 -1.07429,-3.02732 -2.05078,-4.19922 -0.94408,-1.2044 -2.21361,-2.31117 -3.80859,-3.32031 -1.59512,-1.00908 -3.61335,-1.75778 -6.05469,-2.24609 -2.44146,-0.48825 -5.3386,-0.83005 -8.69141,-1.02539 -3.32036,-0.19528 -7.19405,-0.29294 -11.62109,-0.29297 -3.64587,3e-5 -6.75459,3e-5 -9.32617,0 -2.57164,-0.0325 -4.73635,-0.13018 -6.49414,-0.29297 -1.72528,-0.19528 -3.09247,-0.47197 -4.10156,-0.83008 -1.00914,-0.35804 -1.77411,-0.87887 -2.29493,-1.5625 -0.52085,-0.68356 -0.86264,-1.54619 -1.02539,-2.58789 -0.13022,-1.07418 -0.19533,-2.16467 -0.19531,-3.27148 -2e-5,-1.88798 0.42316,-3.3691 1.26953,-4.44336 0.84634,-1.07418 2.24608,-1.8717 4.19922,-2.39258 1.9531,-0.52079 4.52471,-0.84631 7.71484,-0.97656 3.19008,-0.13016 7.12887,-0.19527 11.81641,-0.19532 4.29683,5e-5 7.845,0.13026 10.64453,0.39063 2.83198,0.22791 5.07807,0.66736 6.73828,1.31836 1.6601,0.61853 2.8157,1.48116 3.4668,2.58789 0.68353,1.10681 1.02533,2.5391 1.02539,4.29687 l 9.375,0 c -7e-5,-2.83198 -0.47208,-5.27339 -1.41602,-7.32422 -0.94408,-2.05073 -2.60423,-3.74343 -4.98046,-5.07812 -2.34382,-1.36713 -5.53392,-2.37625 -9.57032,-3.02734 -4.00395,-0.65099 -9.09835,-0.97651 -15.2832,-0.97657 -6.25003,6e-5 -11.55602,0.27675 -15.91797,0.83008 -4.362,0.55344 -7.91017,1.4649 -10.64453,2.73438 -2.73439,1.23703 -4.72006,2.86463 -5.95703,4.88281 -1.23699,1.98572 -1.85548,4.4434 -1.85547,7.37305 -1e-5,2.14847 0.19531,4.15042 0.58594,6.00585 0.39062,1.82296 1.05793,3.36918 2.00195,4.63868 0.944,1.23701 2.21353,2.22984 3.80859,2.97851 1.62759,0.74873 3.64582,1.33466 6.05469,1.75781 2.44139,0.39066 5.33852,0.65107 8.69141,0.78125 3.35283,0.13024 7.2428,0.19534 11.66992,0.19532"
         style="font-size:100px;font-family:Michroma;-inkscape-font-specification:Michroma;fill:#333333;fill-opacity:1"
         id="path3122" />
    </g>
    <g
       style="font-size:20px;font-style:normal;font-variant:normal;font-weight:normal;font-stretch:normal;line-height:125%;letter-spacing:0px;word-spacing:0px;fill:#333333;fill-opacity:1;stroke:none;font-family:PT Sans;-inkscape-font-specification:PT Sans"
       id="text3076">
      <path
         d="m 384.08508,276.93362 -1.875,0 0,-6.34765 c -1e-5,-0.67708 -0.0456,-1.24674 -0.13672,-1.70899 -0.0846,-0.46874 -0.26368,-0.84634 -0.53711,-1.13281 -0.26693,-0.28645 -0.64779,-0.49153 -1.14257,-0.61523 -0.48829,-0.1302 -1.13282,-0.19531 -1.9336,-0.19532 -0.87891,10e-6 -1.60157,0.0749 -2.16797,0.22461 -0.56641,0.14324 -1.01237,0.34832 -1.33789,0.61524 -0.32552,0.26042 -0.55339,0.57618 -0.68359,0.94726 -0.1237,0.37111 -0.18555,0.78452 -0.18555,1.24024 l 0,6.97265 -1.875,0 0,-11.25 1.875,0 0,1.77735 c 0.007,-0.0195 0.0358,-0.0846 0.0879,-0.19531 0.0521,-0.11067 0.14323,-0.24088 0.27344,-0.39063 0.13672,-0.15624 0.31901,-0.32225 0.54688,-0.49805 0.23437,-0.17577 0.53385,-0.33853 0.89843,-0.48828 0.37109,-0.14973 0.81706,-0.27342 1.33789,-0.37109 0.52083,-0.0976 1.13932,-0.14647 1.85547,-0.14649 0.70312,2e-5 1.31184,0.0456 1.82617,0.13672 0.52083,0.0847 0.96354,0.21486 1.32813,0.39063 0.37108,0.16928 0.67056,0.38412 0.89844,0.64453 0.23436,0.25392 0.41991,0.54688 0.55664,0.87891 0.11066,-0.17578 0.28319,-0.38085 0.51758,-0.61524 0.23436,-0.23436 0.55988,-0.45897 0.97656,-0.67383 0.42316,-0.21483 0.9505,-0.39387 1.58203,-0.53711 0.63149,-0.14972 1.40298,-0.22459 2.31445,-0.22461 0.74868,2e-5 1.38996,0.0521 1.92383,0.15625 0.54035,0.0977 0.99607,0.24741 1.36719,0.44922 0.37107,0.19533 0.66729,0.43947 0.88867,0.73242 0.22784,0.29298 0.40037,0.63478 0.51758,1.0254 0.12367,0.38412 0.20505,0.81706 0.24414,1.29882 0.039,0.47527 0.0586,0.99285 0.0586,1.55274 l 0,6.34765 -1.875,0 0,-6.34765 c -2e-5,-0.67708 -0.0456,-1.24674 -0.13672,-1.70899 -0.0846,-0.46874 -0.26369,-0.84634 -0.53711,-1.13281 -0.26694,-0.28645 -0.6478,-0.49153 -1.14257,-0.61523 -0.4883,-0.1302 -1.13283,-0.19531 -1.9336,-0.19532 -0.87892,10e-6 -1.60158,0.0749 -2.16797,0.22461 -0.56642,0.14324 -1.01238,0.34832 -1.33789,0.61524 -0.32553,0.26042 -0.5534,0.57618 -0.68359,0.94726 -0.12371,0.37111 -0.18556,0.78452 -0.18555,1.24024 l 0,6.97265"
         style="font-family:Michroma;-inkscape-font-specification:Michroma;fill:#333333;fill-opacity:1"
         id="path3893" />
      <path
         d="m 396.27258,271.2305 c 0,-1.15234 0.1237,-2.10611 0.3711,-2.86133 0.24739,-0.7552 0.64453,-1.35416 1.1914,-1.79687 0.54687,-0.4427 1.25651,-0.75195 2.12891,-0.92774 0.87239,-0.18228 1.93359,-0.27342 3.18359,-0.27344 1.24999,2e-5 2.31119,0.0912 3.1836,0.27344 0.87238,0.17579 1.58202,0.48504 2.1289,0.92774 0.54686,0.44271 0.944,1.04167 1.19141,1.79687 0.24738,0.75522 0.37108,1.70899 0.37109,2.86133 -1e-5,1.15235 -0.12371,2.10938 -0.37109,2.87109 -0.24741,0.76172 -0.64455,1.36719 -1.19141,1.81641 -0.54688,0.44922 -1.25652,0.76823 -2.1289,0.95703 -0.87241,0.18229 -1.93361,0.27344 -3.1836,0.27344 -1.25,0 -2.3112,-0.0911 -3.18359,-0.27344 -0.8724,-0.1888 -1.58204,-0.50781 -2.12891,-0.95703 -0.54687,-0.44922 -0.94401,-1.05469 -1.1914,-1.81641 -0.2474,-0.76171 -0.3711,-1.71874 -0.3711,-2.87109 m 1.875,0 c 0,0.625 0.0228,1.16862 0.0684,1.63086 0.0456,0.46224 0.13021,0.85938 0.25391,1.1914 0.1302,0.33204 0.30924,0.60222 0.53711,0.81055 0.22786,0.20834 0.52734,0.37435 0.89844,0.49805 0.37108,0.1237 0.8203,0.20833 1.34765,0.2539 0.53385,0.0456 1.16536,0.0684 1.89453,0.0684 0.62499,10e-6 1.18163,-0.013 1.66992,-0.0391 0.49479,-0.0326 0.92447,-0.10091 1.28907,-0.20508 0.37108,-0.10416 0.68683,-0.25065 0.94726,-0.43945 0.26041,-0.19531 0.46874,-0.45898 0.625,-0.79102 0.16275,-0.33202 0.27994,-0.73892 0.35157,-1.2207 0.0781,-0.48828 0.11717,-1.07421 0.11718,-1.75781 -1e-5,-0.67057 -0.0391,-1.24023 -0.11718,-1.70899 -0.0716,-0.47525 -0.18882,-0.87238 -0.35157,-1.1914 -0.15626,-0.319 -0.36459,-0.56965 -0.625,-0.75195 -0.26043,-0.1888 -0.57618,-0.32877 -0.94726,-0.41993 -0.3646,-0.0976 -0.79428,-0.15949 -1.28907,-0.18554 -0.48829,-0.026 -1.04493,-0.0391 -1.66992,-0.0391 -0.625,10e-6 -1.1849,0.013 -1.67968,0.0391 -0.48829,0.026 -0.91798,0.0879 -1.28907,0.18554 -0.36458,0.0912 -0.67708,0.23113 -0.9375,0.41993 -0.26042,0.1823 -0.47201,0.43295 -0.63476,0.75195 -0.15626,0.31902 -0.27344,0.71615 -0.35157,1.1914 -0.0716,0.46876 -0.10742,1.03842 -0.10742,1.70899"
         style="font-family:Michroma;-inkscape-font-specification:Michroma;fill:#333333;fill-opacity:1"
         id="path3895" />
      <path
         d="m 423.14758,271.93362 c -1e-5,0.95704 -0.0781,1.75782 -0.23437,2.40235 -0.15626,0.63802 -0.41994,1.14909 -0.79102,1.5332 -0.36459,0.38412 -0.84636,0.65755 -1.44531,0.82031 -0.59897,0.16276 -1.3379,0.24414 -2.2168,0.24414 -0.85287,0 -1.56901,-0.0651 -2.14843,-0.19531 -0.57944,-0.13021 -1.04819,-0.35156 -1.40625,-0.66406 -0.35808,-0.3125 -0.61524,-0.72917 -0.77149,-1.25 -0.15625,-0.52083 -0.23438,-1.17187 -0.23437,-1.95313 l 0,-5.64453 -2.31446,0 0,-1.54297 2.31446,0 0,-3.07617 1.875,0 0,3.07617 7.06054,0 0,1.54297 -7.06054,0 0,5.64453 c -10e-6,0.62501 0.0456,1.10678 0.13671,1.44532 0.0977,0.33854 0.25065,0.58594 0.45899,0.74218 0.20833,0.15626 0.48176,0.2474 0.82031,0.27344 0.34505,0.026 0.76497,0.0391 1.25977,0.0391 0.39061,10e-6 0.73892,-0.007 1.04492,-0.0195 0.31249,-0.013 0.58267,-0.0521 0.81055,-0.11718 0.23436,-0.0716 0.43293,-0.17578 0.5957,-0.3125 0.16275,-0.14323 0.29296,-0.3418 0.39062,-0.59571 0.10416,-0.2539 0.17903,-0.57291 0.22461,-0.95703 0.0456,-0.39062 0.0683,-0.86914 0.0684,-1.43555 l 1.5625,0"
         style="font-family:Michroma;-inkscape-font-specification:Michroma;fill:#333333;fill-opacity:1"
         id="path3897" />
      <path
         d="m 426.27258,265.68362 1.875,0 0,11.25 -1.875,0 0,-11.25 m 1.875,-1.875 -1.875,0 0,-1.875 1.875,0 0,1.875"
         style="font-family:Michroma;-inkscape-font-specification:Michroma;fill:#333333;fill-opacity:1"
         id="path3899" />
      <path
         d="m 430.96008,271.2305 c 0,-1.15234 0.1237,-2.10611 0.3711,-2.86133 0.24739,-0.7552 0.64453,-1.35416 1.1914,-1.79687 0.54687,-0.4427 1.25651,-0.75195 2.12891,-0.92774 0.87239,-0.18228 1.93359,-0.27342 3.18359,-0.27344 1.24999,2e-5 2.31119,0.0912 3.1836,0.27344 0.87238,0.17579 1.58202,0.48504 2.1289,0.92774 0.54686,0.44271 0.944,1.04167 1.19141,1.79687 0.24738,0.75522 0.37108,1.70899 0.37109,2.86133 -1e-5,1.15235 -0.12371,2.10938 -0.37109,2.87109 -0.24741,0.76172 -0.64455,1.36719 -1.19141,1.81641 -0.54688,0.44922 -1.25652,0.76823 -2.1289,0.95703 -0.87241,0.18229 -1.93361,0.27344 -3.1836,0.27344 -1.25,0 -2.3112,-0.0911 -3.18359,-0.27344 -0.8724,-0.1888 -1.58204,-0.50781 -2.12891,-0.95703 -0.54687,-0.44922 -0.94401,-1.05469 -1.1914,-1.81641 -0.2474,-0.76171 -0.3711,-1.71874 -0.3711,-2.87109 m 1.875,0 c 0,0.625 0.0228,1.16862 0.0684,1.63086 0.0456,0.46224 0.13021,0.85938 0.25391,1.1914 0.1302,0.33204 0.30924,0.60222 0.53711,0.81055 0.22786,0.20834 0.52734,0.37435 0.89844,0.49805 0.37108,0.1237 0.8203,0.20833 1.34765,0.2539 0.53385,0.0456 1.16536,0.0684 1.89453,0.0684 0.62499,10e-6 1.18163,-0.013 1.66992,-0.0391 0.49479,-0.0326 0.92447,-0.10091 1.28907,-0.20508 0.37108,-0.10416 0.68683,-0.25065 0.94726,-0.43945 0.26041,-0.19531 0.46874,-0.45898 0.625,-0.79102 0.16275,-0.33202 0.27994,-0.73892 0.35157,-1.2207 0.0781,-0.48828 0.11717,-1.07421 0.11718,-1.75781 -1e-5,-0.67057 -0.0391,-1.24023 -0.11718,-1.70899 -0.0716,-0.47525 -0.18882,-0.87238 -0.35157,-1.1914 -0.15626,-0.319 -0.36459,-0.56965 -0.625,-0.75195 -0.26043,-0.1888 -0.57618,-0.32877 -0.94726,-0.41993 -0.3646,-0.0976 -0.79428,-0.15949 -1.28907,-0.18554 -0.48829,-0.026 -1.04493,-0.0391 -1.66992,-0.0391 -0.625,10e-6 -1.1849,0.013 -1.67968,0.0391 -0.48829,0.026 -0.91798,0.0879 -1.28907,0.18554 -0.36458,0.0912 -0.67708,0.23113 -0.9375,0.41993 -0.26042,0.1823 -0.47201,0.43295 -0.63476,0.75195 -0.15626,0.31902 -0.27344,0.71615 -0.35157,1.1914 -0.0716,0.46876 -0.10742,1.03842 -0.10742,1.70899"
         style="font-family:Michroma;-inkscape-font-specification:Michroma;fill:#333333;fill-opacity:1"
         id="path3901" />
      <path
         d="m 458.14758,276.93362 0,-6.25 c -1e-5,-0.6966 -0.0521,-1.28254 -0.15625,-1.75781 -0.10418,-0.48176 -0.31251,-0.86913 -0.625,-1.16211 -0.31251,-0.29296 -0.75522,-0.50455 -1.32812,-0.63476 -0.57293,-0.1302 -1.32814,-0.19531 -2.26563,-0.19532 -1.01563,10e-6 -1.84896,0.0749 -2.5,0.22461 -0.64453,0.14975 -1.15235,0.36134 -1.52343,0.63477 -0.3711,0.27345 -0.62826,0.60222 -0.77149,0.98633 -0.13672,0.38412 -0.20508,0.81055 -0.20508,1.27929 l 0,6.875 -1.875,0 0,-11.25 1.875,0 0,1.875 c 0.13672,-0.319 0.33203,-0.59243 0.58594,-0.82031 0.2539,-0.23436 0.54036,-0.43293 0.85938,-0.5957 0.319,-0.16275 0.66405,-0.29296 1.03515,-0.39063 0.37109,-0.10415 0.74218,-0.18228 1.11328,-0.23437 0.37109,-0.0586 0.72916,-0.0976 1.07422,-0.11719 0.35156,-0.0195 0.67057,-0.0293 0.95703,-0.0293 0.83333,2e-5 1.54947,0.0521 2.14844,0.15625 0.60546,0.10418 1.11652,0.25718 1.5332,0.45899 0.42317,0.20183 0.76171,0.45248 1.01563,0.75195 0.25389,0.29949 0.4492,0.6478 0.58594,1.04492 0.14321,0.39064 0.23761,0.83009 0.2832,1.31836 0.0456,0.48178 0.0683,1.00912 0.0684,1.58203 l -0.01,6.25 -1.875,0"
         style="font-family:Michroma;-inkscape-font-specification:Michroma;fill:#333333;fill-opacity:1"
         id="path3903" />
      <path
         d="m 473.77258,265.37112 c 1.24999,2e-5 2.31119,0.0944 3.1836,0.28321 0.87238,0.18881 1.58202,0.51108 2.1289,0.96679 0.54686,0.45574 0.944,1.06772 1.19141,1.83594 0.24738,0.76173 0.37108,1.71876 0.37109,2.8711 -1e-5,1.13281 -0.12371,2.07357 -0.37109,2.82226 -0.24741,0.7487 -0.64455,1.3444 -1.19141,1.78711 -0.54688,0.44271 -1.25652,0.75521 -2.1289,0.9375 -0.87241,0.18229 -1.93361,0.27344 -3.1836,0.27344 -0.89193,0 -1.63737,-0.0488 -2.23633,-0.14649 -0.59896,-0.0976 -1.09049,-0.2181 -1.4746,-0.36132 -0.37761,-0.14974 -0.66733,-0.30925 -0.86915,-0.47852 -0.19531,-0.16927 -0.33528,-0.32878 -0.41992,-0.47852 l 0,5 -1.875,0 0,-15 1.875,0 0,1.04493 c 0.0846,-0.1302 0.22461,-0.27343 0.41992,-0.42969 0.20182,-0.16275 0.49154,-0.31249 0.86915,-0.44922 0.38411,-0.13671 0.87564,-0.25064 1.4746,-0.3418 0.59896,-0.0911 1.3444,-0.1367 2.23633,-0.13672 m 0,1.5625 c -0.625,10e-6 -1.18164,0.0163 -1.66992,0.0488 -0.48829,0.0326 -0.91797,0.10092 -1.28906,0.20508 -0.3711,0.0977 -0.68685,0.24415 -0.94727,0.43945 -0.25391,0.18881 -0.46224,0.44598 -0.625,0.77149 -0.16276,0.31902 -0.2832,0.71615 -0.36133,1.1914 -0.0716,0.47527 -0.10742,1.04493 -0.10742,1.70899 0,0.67058 0.0358,1.24675 0.10742,1.72851 0.0781,0.48178 0.19857,0.88542 0.36133,1.21094 0.16276,0.31901 0.37109,0.57618 0.625,0.77149 0.26042,0.1888 0.57617,0.33528 0.94727,0.43945 0.37109,0.0977 0.80077,0.16276 1.28906,0.19531 0.48828,0.026 1.04492,0.0391 1.66992,0.0391 0.72916,10e-6 1.35742,-0.0228 1.88477,-0.0684 0.53384,-0.0456 0.98632,-0.12695 1.35742,-0.24414 0.37108,-0.11718 0.67056,-0.27994 0.89844,-0.48828 0.23436,-0.20833 0.4134,-0.472 0.53711,-0.79101 0.13019,-0.32552 0.21483,-0.71289 0.2539,-1.16211 0.0456,-0.45573 0.0683,-0.98958 0.0684,-1.60156 -1e-5,-0.61198 -0.0228,-1.14583 -0.0684,-1.60157 -0.0391,-0.45572 -0.12371,-0.84634 -0.2539,-1.17187 -0.12371,-0.32551 -0.30275,-0.59244 -0.53711,-0.80078 -0.22788,-0.20833 -0.52736,-0.37434 -0.89844,-0.49805 -0.3711,-0.12369 -0.82358,-0.20832 -1.35742,-0.25391 -0.52735,-0.0456 -1.15561,-0.0684 -1.88477,-0.0684"
         style="font-family:Michroma;-inkscape-font-specification:Michroma;fill:#333333;fill-opacity:1"
         id="path3905" />
      <path
         d="m 483.46008,261.93362 1.875,0 0,15 -1.875,0 0,-15"
         style="font-family:Michroma;-inkscape-font-specification:Michroma;fill:#333333;fill-opacity:1"
         id="path3907" />
      <path
         d="m 499.66125,275.39066 c -0.0195,0.0781 -0.16602,0.27343 -0.43945,0.58593 -0.19532,0.23438 -0.45574,0.44271 -0.78125,0.625 -0.32553,0.17578 -0.76173,0.3125 -1.30859,0.41016 -0.54038,0.10417 -1.25327,0.15625 -2.13867,0.15625 -1.1784,0 -2.18425,-0.0618 -3.01758,-0.18555 -0.83334,-0.11719 -1.51368,-0.29948 -2.04102,-0.54687 -0.52734,-0.25391 -0.91471,-0.57617 -1.16211,-0.9668 -0.24088,-0.39062 -0.36133,-0.85612 -0.36133,-1.39648 0,-0.56641 0.0651,-1.04492 0.19532,-1.43555 0.13671,-0.39713 0.33203,-0.72916 0.58593,-0.99609 0.26042,-0.26693 0.57292,-0.47526 0.9375,-0.625 0.36458,-0.14974 0.778,-0.26367 1.24024,-0.3418 0.46874,-0.0781 0.97981,-0.12695 1.5332,-0.14649 0.55338,-0.0195 1.14257,-0.0293 1.76758,-0.0293 0.89192,0 1.63736,0.0391 2.23633,0.11718 0.59895,0.0716 1.08723,0.16603 1.46484,0.28321 0.38411,0.11068 0.67382,0.23112 0.86914,0.36133 0.1953,0.13021 0.33528,0.25065 0.41992,0.36132 -10e-6,-0.72916 -0.0326,-1.3509 -0.0976,-1.86523 -0.0586,-0.51432 -0.15952,-0.944 -0.30274,-1.28906 -0.13673,-0.34505 -0.31576,-0.61848 -0.53711,-0.82032 -0.22136,-0.20832 -0.4948,-0.36457 -0.82031,-0.46875 -0.31902,-0.10415 -0.69337,-0.16926 -1.12304,-0.19531 -0.4297,-0.0325 -0.92124,-0.0488 -1.47461,-0.0488 -0.85939,10e-6 -1.57228,0.0228 -2.13868,0.0684 -0.56641,0.0391 -1.01563,0.12046 -1.34765,0.24414 -0.33204,0.12371 -0.56641,0.29624 -0.70313,0.51758 -0.13672,0.21486 -0.20508,0.49806 -0.20508,0.84961 l -1.875,0 c 0,-0.59244 0.10417,-1.09374 0.3125,-1.5039 0.21485,-0.41015 0.56641,-0.74218 1.05469,-0.9961 0.49479,-0.2604 1.14258,-0.44921 1.94336,-0.5664 0.80078,-0.11718 1.7871,-0.17577 2.95899,-0.17579 1.14582,2e-5 2.11587,0.0944 2.91015,0.28321 0.79426,0.18881 1.43554,0.52084 1.92383,0.99609 0.49478,0.47527 0.8496,1.11655 1.06445,1.92383 0.22134,0.80079 0.33202,1.81641 0.33203,3.04687 l 0,5.3125 -1.875,0 0,-1.54296 m -4.35546,0.29296 c 0.82681,10e-6 1.51691,-0.0391 2.07031,-0.11718 0.55988,-0.0781 1.0091,-0.19531 1.34765,-0.35157 0.33853,-0.15624 0.57942,-0.35156 0.72266,-0.58593 0.14322,-0.23438 0.21483,-0.50781 0.21484,-0.82032 -10e-6,-0.31249 -0.0846,-0.57616 -0.2539,-0.79101 -0.16277,-0.22135 -0.43947,-0.40039 -0.83008,-0.53711 -0.38413,-0.13671 -0.89519,-0.23437 -1.5332,-0.29297 -0.63803,-0.0651 -1.42579,-0.0976 -2.36328,-0.0977 -0.93751,10e-6 -1.69597,0.0163 -2.27539,0.0488 -0.57293,0.0326 -1.01563,0.10743 -1.32813,0.22461 -0.3125,0.11719 -0.52409,0.28972 -0.63477,0.51758 -0.10416,0.22787 -0.15625,0.53711 -0.15625,0.92773 0,0.39063 0.0553,0.70964 0.16602,0.95704 0.11718,0.24088 0.35156,0.42968 0.70313,0.5664 0.35155,0.13672 0.85611,0.23112 1.51367,0.2832 0.66405,0.0456 1.54296,0.0684 2.63672,0.0684"
         style="font-family:Michroma;-inkscape-font-specification:Michroma;fill:#333333;fill-opacity:1"
         id="path3909" />
      <path
         d="m 515.29602,276.93362 0,-6.25 c -10e-6,-0.6966 -0.0521,-1.28254 -0.15625,-1.75781 -0.10418,-0.48176 -0.31251,-0.86913 -0.625,-1.16211 -0.31251,-0.29296 -0.75522,-0.50455 -1.32812,-0.63476 -0.57293,-0.1302 -1.32814,-0.19531 -2.26563,-0.19532 -1.01563,10e-6 -1.84896,0.0749 -2.5,0.22461 -0.64454,0.14975 -1.15235,0.36134 -1.52344,0.63477 -0.37109,0.27345 -0.62826,0.60222 -0.77148,0.98633 -0.13672,0.38412 -0.20508,0.81055 -0.20508,1.27929 l 0,6.875 -1.875,0 0,-11.25 1.875,0 0,1.875 c 0.13672,-0.319 0.33203,-0.59243 0.58594,-0.82031 0.2539,-0.23436 0.54036,-0.43293 0.85937,-0.5957 0.31901,-0.16275 0.66406,-0.29296 1.03516,-0.39063 0.37109,-0.10415 0.74218,-0.18228 1.11328,-0.23437 0.37109,-0.0586 0.72916,-0.0976 1.07422,-0.11719 0.35155,-0.0195 0.67056,-0.0293 0.95703,-0.0293 0.83332,2e-5 1.54947,0.0521 2.14844,0.15625 0.60546,0.10418 1.11652,0.25718 1.5332,0.45899 0.42317,0.20183 0.76171,0.45248 1.01563,0.75195 0.25389,0.29949 0.4492,0.6478 0.58593,1.04492 0.14322,0.39064 0.23762,0.83009 0.28321,1.31836 0.0456,0.48178 0.0683,1.00912 0.0684,1.58203 l -0.01,6.25 -1.875,0"
         style="font-family:Michroma;-inkscape-font-specification:Michroma;fill:#333333;fill-opacity:1"
         id="path3911" />
      <path
         d="m 530.92102,276.93362 0,-6.25 c -10e-6,-0.6966 -0.0521,-1.28254 -0.15625,-1.75781 -0.10418,-0.48176 -0.31251,-0.86913 -0.625,-1.16211 -0.31251,-0.29296 -0.75522,-0.50455 -1.32812,-0.63476 -0.57293,-0.1302 -1.32814,-0.19531 -2.26563,-0.19532 -1.01563,10e-6 -1.84896,0.0749 -2.5,0.22461 -0.64454,0.14975 -1.15235,0.36134 -1.52344,0.63477 -0.37109,0.27345 -0.62826,0.60222 -0.77148,0.98633 -0.13672,0.38412 -0.20508,0.81055 -0.20508,1.27929 l 0,6.875 -1.875,0 0,-11.25 1.875,0 0,1.875 c 0.13672,-0.319 0.33203,-0.59243 0.58594,-0.82031 0.2539,-0.23436 0.54036,-0.43293 0.85937,-0.5957 0.31901,-0.16275 0.66406,-0.29296 1.03516,-0.39063 0.37109,-0.10415 0.74218,-0.18228 1.11328,-0.23437 0.37109,-0.0586 0.72916,-0.0976 1.07422,-0.11719 0.35155,-0.0195 0.67056,-0.0293 0.95703,-0.0293 0.83332,2e-5 1.54947,0.0521 2.14844,0.15625 0.60546,0.10418 1.11652,0.25718 1.5332,0.45899 0.42317,0.20183 0.76171,0.45248 1.01563,0.75195 0.25389,0.29949 0.4492,0.6478 0.58593,1.04492 0.14322,0.39064 0.23762,0.83009 0.28321,1.31836 0.0456,0.48178 0.0683,1.00912 0.0684,1.58203 l -0.01,6.25 -1.875,0"
         style="font-family:Michroma;-inkscape-font-specification:Michroma;fill:#333333;fill-opacity:1"
         id="path3913" />
      <path
         d="m 535.92102,265.68362 1.875,0 0,11.25 -1.875,0 0,-11.25 m 1.875,-1.875 -1.875,0 0,-1.875 1.875,0 0,1.875"
         style="font-family:Michroma;-inkscape-font-specification:Michroma;fill:#333333;fill-opacity:1"
         id="path3915" />
      <path
         d="m 552.17102,276.93362 0,-6.25 c -10e-6,-0.6966 -0.0521,-1.28254 -0.15625,-1.75781 -0.10418,-0.48176 -0.31251,-0.86913 -0.625,-1.16211 -0.31251,-0.29296 -0.75522,-0.50455 -1.32812,-0.63476 -0.57293,-0.1302 -1.32814,-0.19531 -2.26563,-0.19532 -1.01563,10e-6 -1.84896,0.0749 -2.5,0.22461 -0.64454,0.14975 -1.15235,0.36134 -1.52344,0.63477 -0.37109,0.27345 -0.62826,0.60222 -0.77148,0.98633 -0.13672,0.38412 -0.20508,0.81055 -0.20508,1.27929 l 0,6.875 -1.875,0 0,-11.25 1.875,0 0,1.875 c 0.13672,-0.319 0.33203,-0.59243 0.58594,-0.82031 0.2539,-0.23436 0.54036,-0.43293 0.85937,-0.5957 0.31901,-0.16275 0.66406,-0.29296 1.03516,-0.39063 0.37109,-0.10415 0.74218,-0.18228 1.11328,-0.23437 0.37109,-0.0586 0.72916,-0.0976 1.07422,-0.11719 0.35155,-0.0195 0.67056,-0.0293 0.95703,-0.0293 0.83332,2e-5 1.54947,0.0521 2.14844,0.15625 0.60546,0.10418 1.11652,0.25718 1.5332,0.45899 0.42317,0.20183 0.76171,0.45248 1.01563,0.75195 0.25389,0.29949 0.4492,0.6478 0.58593,1.04492 0.14322,0.39064 0.23762,0.83009 0.28321,1.31836 0.0456,0.48178 0.0683,1.00912 0.0684,1.58203 l -0.01,6.25 -1.875,0"
         style="font-family:Michroma;-inkscape-font-specification:Michroma;fill:#333333;fill-opacity:1"
         id="path3917" />
      <path
         d="m 563.10852,266.93362 c -0.72917,10e-6 -1.36068,0.0228 -1.89453,0.0684 -0.52735,0.0456 -0.97657,0.12697 -1.34766,0.24414 -0.37109,0.1172 -0.67383,0.27996 -0.9082,0.48829 -0.22787,0.20834 -0.4069,0.47526 -0.53711,0.80078 -0.1237,0.32553 -0.20834,0.71941 -0.25391,1.18164 -0.0391,0.45573 -0.0586,0.99284 -0.0586,1.61133 0,0.61198 0.0195,1.14583 0.0586,1.60156 0.0456,0.44922 0.13021,0.83659 0.25391,1.16211 0.13021,0.31901 0.30924,0.58268 0.53711,0.79101 0.23437,0.20834 0.53711,0.3711 0.9082,0.48828 0.37109,0.11719 0.82031,0.19857 1.34766,0.24414 0.53385,0.0456 1.16536,0.0684 1.89453,0.0684 0.62499,10e-6 1.18163,-0.013 1.66992,-0.0391 0.48827,-0.0326 0.91796,-0.0976 1.28906,-0.19531 0.37109,-0.10417 0.68359,-0.25065 0.9375,-0.43945 0.26041,-0.19531 0.472,-0.45248 0.63477,-0.77149 0.16275,-0.32552 0.27994,-0.72591 0.35156,-1.20117 0.0781,-0.48177 0.11718,-1.06119 0.11719,-1.73828 -10e-6,-0.67708 -0.0391,-1.2565 -0.11719,-1.73828 -0.0716,-0.48177 -0.18881,-0.88216 -0.35156,-1.20117 -0.16277,-0.32552 -0.37436,-0.58268 -0.63477,-0.77149 -0.25391,-0.18879 -0.56641,-0.33202 -0.9375,-0.42969 -0.3711,-0.0976 -0.80079,-0.15949 -1.28906,-0.18554 -0.48829,-0.026 -1.04493,-0.0391 -1.66992,-0.0391 m 6.875,8.4375 c -10e-6,1.09375 -0.12371,2.00196 -0.37109,2.72461 -0.24741,0.72266 -0.64455,1.30534 -1.19141,1.74805 -0.54689,0.44922 -1.25652,0.76172 -2.12891,0.9375 -0.8724,0.17578 -1.9336,0.26367 -3.18359,0.26367 -1.17188,0 -2.15821,-0.0521 -2.95898,-0.15625 -0.79428,-0.10417 -1.43555,-0.27018 -1.92383,-0.49804 -0.48829,-0.22136 -0.83985,-0.51108 -1.05469,-0.86915 -0.20833,-0.35156 -0.3125,-0.78125 -0.3125,-1.28906 l 1.875,0 c 0,0.25391 0.0651,0.46224 0.19531,0.625 0.13672,0.16276 0.37109,0.28971 0.70313,0.38086 0.33202,0.0911 0.77799,0.15299 1.33789,0.18555 0.5664,0.0391 1.27929,0.0586 2.13867,0.0586 0.93749,0 1.72525,-0.0358 2.36328,-0.10742 0.63801,-0.0651 1.15233,-0.22461 1.54297,-0.47852 0.39061,-0.2539 0.67056,-0.63802 0.83984,-1.15234 0.16926,-0.51432 0.2539,-1.20117 0.25391,-2.06055 -0.0912,0.15626 -0.23764,0.32553 -0.43945,0.50782 -0.19533,0.18229 -0.48504,0.35156 -0.86914,0.50781 -0.37762,0.15625 -0.8659,0.28646 -1.46485,0.39062 -0.59896,0.10417 -1.34115,0.15625 -2.22656,0.15625 -1.25001,0 -2.3112,-0.0944 -3.18359,-0.2832 -0.8724,-0.18229 -1.58204,-0.49805 -2.12891,-0.94726 -0.54688,-0.44922 -0.94401,-1.05469 -1.19141,-1.81641 -0.24739,-0.76172 -0.37109,-1.71875 -0.37109,-2.87109 0,-1.17187 0.1237,-2.14192 0.37109,-2.91016 0.2474,-0.76822 0.64453,-1.37694 1.19141,-1.82617 0.54687,-0.44921 1.25651,-0.76497 2.12891,-0.94727 0.87239,-0.18228 1.93358,-0.27342 3.18359,-0.27344 0.88541,2e-5 1.6276,0.0456 2.22656,0.13672 0.59895,0.0912 1.08723,0.20509 1.46485,0.3418 0.3841,0.13673 0.67381,0.28647 0.86914,0.44922 0.20181,0.15626 0.34829,0.29949 0.43945,0.42969 l 0,-1.04493 1.875,0 0,9.6875"
         style="font-family:Michroma;-inkscape-font-specification:Michroma;fill:#333333;fill-opacity:1"
         id="path3919" />
      <path
         d="m 588.73352,276.93362 -1.875,0 0,-6.34765 c -10e-6,-0.67708 -0.0456,-1.24674 -0.13672,-1.70899 -0.0846,-0.46874 -0.26368,-0.84634 -0.53711,-1.13281 -0.26694,-0.28645 -0.64779,-0.49153 -1.14258,-0.61523 -0.48829,-0.1302 -1.13282,-0.19531 -1.93359,-0.19532 -0.87891,10e-6 -1.60157,0.0749 -2.16797,0.22461 -0.56641,0.14324 -1.01237,0.34832 -1.33789,0.61524 -0.32552,0.26042 -0.55339,0.57618 -0.68359,0.94726 -0.1237,0.37111 -0.18555,0.78452 -0.18555,1.24024 l 0,6.97265 -1.875,0 0,-11.25 1.875,0 0,1.77735 c 0.007,-0.0195 0.0358,-0.0846 0.0879,-0.19531 0.0521,-0.11067 0.14323,-0.24088 0.27344,-0.39063 0.13671,-0.15624 0.31901,-0.32225 0.54687,-0.49805 0.23437,-0.17577 0.53385,-0.33853 0.89844,-0.48828 0.37109,-0.14973 0.81705,-0.27342 1.33789,-0.37109 0.52083,-0.0976 1.13932,-0.14647 1.85547,-0.14649 0.70312,2e-5 1.31184,0.0456 1.82617,0.13672 0.52083,0.0847 0.96353,0.21486 1.32813,0.39063 0.37108,0.16928 0.67056,0.38412 0.89843,0.64453 0.23437,0.25392 0.41991,0.54688 0.55665,0.87891 0.11066,-0.17578 0.28319,-0.38085 0.51757,-0.61524 0.23437,-0.23436 0.55989,-0.45897 0.97657,-0.67383 0.42316,-0.21483 0.9505,-0.39387 1.58203,-0.53711 0.63149,-0.14972 1.40297,-0.22459 2.31445,-0.22461 0.74868,2e-5 1.38995,0.0521 1.92383,0.15625 0.54034,0.0977 0.99607,0.24741 1.36719,0.44922 0.37107,0.19533 0.66729,0.43947 0.88867,0.73242 0.22784,0.29298 0.40037,0.63478 0.51758,1.0254 0.12367,0.38412 0.20505,0.81706 0.24414,1.29882 0.039,0.47527 0.0586,0.99285 0.0586,1.55274 l 0,6.34765 -1.875,0 0,-6.34765 c -2e-5,-0.67708 -0.0456,-1.24674 -0.13672,-1.70899 -0.0847,-0.46874 -0.26369,-0.84634 -0.53711,-1.13281 -0.26695,-0.28645 -0.6478,-0.49153 -1.14258,-0.61523 -0.4883,-0.1302 -1.13283,-0.19531 -1.93359,-0.19532 -0.87892,10e-6 -1.60158,0.0749 -2.16797,0.22461 -0.56642,0.14324 -1.01238,0.34832 -1.33789,0.61524 -0.32553,0.26042 -0.5534,0.57618 -0.68359,0.94726 -0.12371,0.37111 -0.18556,0.78452 -0.18555,1.24024 l 0,6.97265"
         style="font-family:Michroma;-inkscape-font-specification:Michroma;fill:#333333;fill-opacity:1"
         id="path3921" />
      <path
         d="m 612.43469,275.39066 c -0.0195,0.0781 -0.16603,0.27343 -0.43945,0.58593 -0.19533,0.23438 -0.45574,0.44271 -0.78125,0.625 -0.32553,0.17578 -0.76173,0.3125 -1.30859,0.41016 -0.54038,0.10417 -1.25327,0.15625 -2.13868,0.15625 -1.17839,0 -2.18425,-0.0618 -3.01757,-0.18555 -0.83334,-0.11719 -1.51368,-0.29948 -2.04102,-0.54687 -0.52735,-0.25391 -0.91472,-0.57617 -1.16211,-0.9668 -0.24089,-0.39062 -0.36133,-0.85612 -0.36133,-1.39648 0,-0.56641 0.0651,-1.04492 0.19531,-1.43555 0.13672,-0.39713 0.33203,-0.72916 0.58594,-0.99609 0.26042,-0.26693 0.57292,-0.47526 0.9375,-0.625 0.36458,-0.14974 0.77799,-0.26367 1.24024,-0.3418 0.46874,-0.0781 0.97981,-0.12695 1.5332,-0.14649 0.55338,-0.0195 1.14257,-0.0293 1.76758,-0.0293 0.89192,0 1.63736,0.0391 2.23633,0.11718 0.59894,0.0716 1.08722,0.16603 1.46484,0.28321 0.3841,0.11068 0.67382,0.23112 0.86914,0.36133 0.1953,0.13021 0.33527,0.25065 0.41992,0.36132 -1e-5,-0.72916 -0.0326,-1.3509 -0.0977,-1.86523 -0.0586,-0.51432 -0.15952,-0.944 -0.30274,-1.28906 -0.13673,-0.34505 -0.31577,-0.61848 -0.53711,-0.82032 -0.22136,-0.20832 -0.4948,-0.36457 -0.82031,-0.46875 -0.31902,-0.10415 -0.69337,-0.16926 -1.12305,-0.19531 -0.42969,-0.0325 -0.92123,-0.0488 -1.47461,-0.0488 -0.85938,10e-6 -1.57227,0.0228 -2.13867,0.0684 -0.56641,0.0391 -1.01563,0.12046 -1.34765,0.24414 -0.33204,0.12371 -0.56641,0.29624 -0.70313,0.51758 -0.13672,0.21486 -0.20508,0.49806 -0.20508,0.84961 l -1.875,0 c 0,-0.59244 0.10417,-1.09374 0.3125,-1.5039 0.21484,-0.41015 0.56641,-0.74218 1.05469,-0.9961 0.49479,-0.2604 1.14257,-0.44921 1.94336,-0.5664 0.80077,-0.11718 1.7871,-0.17577 2.95898,-0.17579 1.14583,2e-5 2.11588,0.0944 2.91016,0.28321 0.79426,0.18881 1.43553,0.52084 1.92383,0.99609 0.49478,0.47527 0.84959,1.11655 1.06445,1.92383 0.22134,0.80079 0.33202,1.81641 0.33203,3.04687 l 0,5.3125 -1.875,0 0,-1.54296 m -4.35547,0.29296 c 0.82682,10e-6 1.51692,-0.0391 2.07032,-0.11718 0.55988,-0.0781 1.0091,-0.19531 1.34765,-0.35157 0.33853,-0.15624 0.57942,-0.35156 0.72266,-0.58593 0.14322,-0.23438 0.21483,-0.50781 0.21484,-0.82032 -1e-5,-0.31249 -0.0847,-0.57616 -0.2539,-0.79101 -0.16278,-0.22135 -0.43947,-0.40039 -0.83008,-0.53711 -0.38413,-0.13671 -0.89519,-0.23437 -1.53321,-0.29297 -0.63803,-0.0651 -1.42578,-0.0976 -2.36328,-0.0977 -0.9375,10e-6 -1.69597,0.0163 -2.27539,0.0488 -0.57292,0.0326 -1.01563,0.10743 -1.32812,0.22461 -0.31251,0.11719 -0.52409,0.28972 -0.63477,0.51758 -0.10417,0.22787 -0.15625,0.53711 -0.15625,0.92773 0,0.39063 0.0553,0.70964 0.16602,0.95704 0.11718,0.24088 0.35156,0.42968 0.70312,0.5664 0.35156,0.13672 0.85612,0.23112 1.51367,0.2832 0.66406,0.0456 1.54297,0.0684 2.63672,0.0684"
         style="font-family:Michroma;-inkscape-font-specification:Michroma;fill:#333333;fill-opacity:1"
         id="path3923" />
      <path
         d="m 623.38196,277.14847 c -1.25001,0 -2.31121,-0.0911 -3.1836,-0.27344 -0.8724,-0.18229 -1.58203,-0.49479 -2.1289,-0.9375 -0.54688,-0.44271 -0.94401,-1.03841 -1.19141,-1.78711 -0.2474,-0.74869 -0.37109,-1.68945 -0.37109,-2.82226 0,-1.17187 0.12369,-2.14192 0.37109,-2.91016 0.2474,-0.76822 0.64453,-1.37694 1.19141,-1.82617 0.54687,-0.44921 1.2565,-0.76497 2.1289,-0.94727 0.87239,-0.18228 1.93359,-0.27342 3.1836,-0.27344 0.88541,2e-5 1.62759,0.0456 2.22656,0.13672 0.59895,0.0912 1.08723,0.20509 1.46484,0.3418 0.38411,0.13673 0.67382,0.28647 0.86914,0.44922 0.20182,0.15626 0.3483,0.30274 0.43946,0.43945 l 0,-4.80469 1.875,0 0,15 -1.875,0 0,-1.66992 c -1e-5,0 -0.15626,0.18555 -0.46875,0.55664 -0.27345,0.26693 -0.57619,0.48177 -0.90821,0.64453 -0.33204,0.16276 -0.79753,0.31901 -1.39648,0.46875 -0.59897,0.14323 -1.34115,0.21485 -2.22656,0.21485 m 0,-1.46485 c 0.62499,10e-6 1.18163,-0.013 1.66992,-0.0391 0.48827,-0.0326 0.91796,-0.0976 1.28906,-0.19531 0.37108,-0.0977 0.68358,-0.24088 0.9375,-0.42969 0.26041,-0.19531 0.472,-0.45247 0.63477,-0.77148 0.16275,-0.31901 0.27993,-0.71289 0.35156,-1.18164 0.0781,-0.47526 0.11718,-1.04492 0.11719,-1.70899 -1e-5,-0.6901 -0.0391,-1.27603 -0.11719,-1.75781 -0.0716,-0.48827 -0.18881,-0.89517 -0.35156,-1.2207 -0.16277,-0.33203 -0.37436,-0.59244 -0.63477,-0.78125 -0.25392,-0.1888 -0.56642,-0.33202 -0.9375,-0.42969 -0.3711,-0.10416 -0.80079,-0.16926 -1.28906,-0.19531 -0.48829,-0.026 -1.04493,-0.0391 -1.66992,-0.0391 -0.72918,10e-6 -1.36069,0.0228 -1.89453,0.0684 -0.52735,0.0456 -0.97657,0.12697 -1.34766,0.24414 -0.3711,0.1172 -0.67383,0.27996 -0.9082,0.48829 -0.22787,0.20834 -0.40691,0.47526 -0.53711,0.80078 -0.1237,0.32553 -0.20834,0.71941 -0.25391,1.18164 -0.0391,0.45573 -0.0586,0.99284 -0.0586,1.61133 0,0.61198 0.0195,1.14583 0.0586,1.60156 0.0456,0.44922 0.13021,0.83659 0.25391,1.16211 0.1302,0.31901 0.30924,0.58268 0.53711,0.79101 0.23437,0.20834 0.5371,0.3711 0.9082,0.48828 0.37109,0.11719 0.82031,0.19857 1.34766,0.24414 0.53384,0.0456 1.16535,0.0684 1.89453,0.0684"
         style="font-family:Michroma;-inkscape-font-specification:Michroma;fill:#333333;fill-opacity:1"
         id="path3925" />
      <path
         d="m 639.31946,277.14847 c -1.25001,0 -2.31121,-0.0846 -3.1836,-0.25391 -0.8724,-0.17578 -1.58203,-0.47526 -2.1289,-0.89844 -0.54688,-0.42317 -0.94401,-0.98958 -1.19141,-1.69921 -0.2474,-0.70964 -0.37109,-1.60156 -0.37109,-2.67579 0,-1.23046 0.12369,-2.24608 0.37109,-3.04687 0.2474,-0.80728 0.64453,-1.44856 1.19141,-1.92383 0.54687,-0.47525 1.2565,-0.80728 2.1289,-0.99609 0.87239,-0.18879 1.93359,-0.28319 3.1836,-0.28321 0.89192,2e-5 1.6634,0.0651 2.31445,0.19532 0.65754,0.13022 1.21744,0.31902 1.67969,0.5664 0.46874,0.24741 0.84634,0.54689 1.13281,0.89844 0.29296,0.35157 0.52082,0.72267 0.68359,1.11328 0.16926,0.38412 0.28319,0.8366 0.3418,1.35742 0.0651,0.52084 0.0976,1.07097 0.0977,1.65039 l -0.15625,0.625 -11.09375,0 c 0,0.85938 0.0846,1.56576 0.2539,2.11914 0.16927,0.54688 0.44922,0.94727 0.83985,1.20118 0.39062,0.2539 0.90494,0.41666 1.54297,0.48828 0.63801,0.0651 1.42577,0.0977 2.36328,0.0977 0.85936,10e-6 1.569,-0.0228 2.1289,-0.0684 0.5664,-0.0521 1.01562,-0.14648 1.34766,-0.2832 0.33202,-0.13672 0.56314,-0.32552 0.69336,-0.5664 0.13671,-0.2474 0.20507,-0.56641 0.20508,-0.95704 l 1.875,0 c -2e-5,0.60548 -0.10744,1.12305 -0.32227,1.55274 -0.20834,0.42318 -0.55665,0.76823 -1.04492,1.03515 -0.48829,0.26042 -1.13282,0.44922 -1.93359,0.56641 -0.79428,0.1237 -1.77736,0.18555 -2.94922,0.18555 m 0,-10.21485 c -0.62501,10e-6 -1.1849,0.013 -1.67969,0.0391 -0.48829,0.026 -0.91797,0.0846 -1.28906,0.17578 -0.36459,0.0846 -0.67709,0.2116 -0.9375,0.38086 -0.26042,0.16277 -0.47201,0.35808 -0.63477,0.58593 -0.15625,0.22137 -0.27344,0.53712 -0.35156,0.94727 -0.0716,0.40365 -0.10742,0.89193 -0.10742,1.46484 l 9.375,0 c -1e-5,-0.76171 -0.0814,-1.35741 -0.24414,-1.78711 -0.16277,-0.43618 -0.41994,-0.79426 -0.77149,-1.07421 -0.35157,-0.27994 -0.80404,-0.472 -1.35742,-0.57618 -0.55339,-0.10415 -1.22071,-0.15624 -2.00195,-0.15625"
         style="font-family:Michroma;-inkscape-font-specification:Michroma;fill:#333333;fill-opacity:1"
         id="path3927" />
      <path
         d="m 659.00696,277.14847 c -1.25001,0 -2.31121,-0.0846 -3.1836,-0.25391 -0.8724,-0.17578 -1.58203,-0.47526 -2.1289,-0.89844 -0.54688,-0.42317 -0.94401,-0.98958 -1.19141,-1.69921 -0.2474,-0.70964 -0.37109,-1.60156 -0.37109,-2.67579 0,-1.23046 0.12369,-2.24608 0.37109,-3.04687 0.2474,-0.80728 0.64453,-1.44856 1.19141,-1.92383 0.54687,-0.47525 1.2565,-0.80728 2.1289,-0.99609 0.87239,-0.18879 1.93359,-0.28319 3.1836,-0.28321 0.89192,2e-5 1.6634,0.0651 2.31445,0.19532 0.65754,0.13022 1.21744,0.31902 1.67969,0.5664 0.46874,0.24741 0.84634,0.54689 1.13281,0.89844 0.29296,0.35157 0.52082,0.72267 0.68359,1.11328 0.16926,0.38412 0.28319,0.8366 0.3418,1.35742 0.0651,0.52084 0.0976,1.07097 0.0977,1.65039 l -0.15625,0.625 -11.09375,0 c 0,0.85938 0.0846,1.56576 0.2539,2.11914 0.16927,0.54688 0.44922,0.94727 0.83985,1.20118 0.39062,0.2539 0.90494,0.41666 1.54297,0.48828 0.63801,0.0651 1.42577,0.0977 2.36328,0.0977 0.85936,10e-6 1.569,-0.0228 2.1289,-0.0684 0.5664,-0.0521 1.01562,-0.14648 1.34766,-0.2832 0.33202,-0.13672 0.56314,-0.32552 0.69336,-0.5664 0.13671,-0.2474 0.20507,-0.56641 0.20508,-0.95704 l 1.875,0 c -2e-5,0.60548 -0.10744,1.12305 -0.32227,1.55274 -0.20834,0.42318 -0.55665,0.76823 -1.04492,1.03515 -0.48829,0.26042 -1.13282,0.44922 -1.93359,0.56641 -0.79428,0.1237 -1.77736,0.18555 -2.94922,0.18555 m 0,-10.21485 c -0.62501,10e-6 -1.1849,0.013 -1.67969,0.0391 -0.48829,0.026 -0.91797,0.0846 -1.28906,0.17578 -0.36459,0.0846 -0.67709,0.2116 -0.9375,0.38086 -0.26042,0.16277 -0.47201,0.35808 -0.63477,0.58593 -0.15625,0.22137 -0.27344,0.53712 -0.35156,0.94727 -0.0716,0.40365 -0.10742,0.89193 -0.10742,1.46484 l 9.375,0 c -1e-5,-0.76171 -0.0814,-1.35741 -0.24414,-1.78711 -0.16277,-0.43618 -0.41994,-0.79426 -0.77149,-1.07421 -0.35157,-0.27994 -0.80404,-0.472 -1.35742,-0.57618 -0.55339,-0.10415 -1.22071,-0.15624 -2.00195,-0.15625"
         style="font-family:Michroma;-inkscape-font-specification:Michroma;fill:#333333;fill-opacity:1"
         id="path3929" />
      <path
         d="m 678.95813,275.39066 c -0.0195,0.0781 -0.16603,0.27343 -0.43945,0.58593 -0.19533,0.23438 -0.45574,0.44271 -0.78125,0.625 -0.32553,0.17578 -0.76173,0.3125 -1.3086,0.41016 -0.54037,0.10417 -1.25326,0.15625 -2.13867,0.15625 -1.17839,0 -2.18425,-0.0618 -3.01758,-0.18555 -0.83333,-0.11719 -1.51367,-0.29948 -2.04101,-0.54687 -0.52735,-0.25391 -0.91472,-0.57617 -1.16211,-0.9668 -0.24089,-0.39062 -0.36133,-0.85612 -0.36133,-1.39648 0,-0.56641 0.0651,-1.04492 0.19531,-1.43555 0.13672,-0.39713 0.33203,-0.72916 0.58594,-0.99609 0.26041,-0.26693 0.57291,-0.47526 0.9375,-0.625 0.36458,-0.14974 0.77799,-0.26367 1.24023,-0.3418 0.46875,-0.0781 0.97982,-0.12695 1.53321,-0.14649 0.55338,-0.0195 1.14257,-0.0293 1.76758,-0.0293 0.89191,0 1.63736,0.0391 2.23632,0.11718 0.59895,0.0716 1.08723,0.16603 1.46485,0.28321 0.3841,0.11068 0.67381,0.23112 0.86914,0.36133 0.1953,0.13021 0.33527,0.25065 0.41992,0.36132 -10e-6,-0.72916 -0.0326,-1.3509 -0.0977,-1.86523 -0.0586,-0.51432 -0.15951,-0.944 -0.30273,-1.28906 -0.13673,-0.34505 -0.31577,-0.61848 -0.53711,-0.82032 -0.22137,-0.20832 -0.4948,-0.36457 -0.82031,-0.46875 -0.31902,-0.10415 -0.69337,-0.16926 -1.12305,-0.19531 -0.4297,-0.0325 -0.92123,-0.0488 -1.47461,-0.0488 -0.85938,10e-6 -1.57227,0.0228 -2.13867,0.0684 -0.56641,0.0391 -1.01563,0.12046 -1.34766,0.24414 -0.33203,0.12371 -0.56641,0.29624 -0.70312,0.51758 -0.13672,0.21486 -0.20508,0.49806 -0.20508,0.84961 l -1.875,0 c 0,-0.59244 0.10416,-1.09374 0.3125,-1.5039 0.21484,-0.41015 0.5664,-0.74218 1.05469,-0.9961 0.49479,-0.2604 1.14257,-0.44921 1.94336,-0.5664 0.80077,-0.11718 1.7871,-0.17577 2.95898,-0.17579 1.14583,2e-5 2.11588,0.0944 2.91016,0.28321 0.79426,0.18881 1.43553,0.52084 1.92383,0.99609 0.49477,0.47527 0.84959,1.11655 1.06445,1.92383 0.22134,0.80079 0.33202,1.81641 0.33203,3.04687 l 0,5.3125 -1.875,0 0,-1.54296 m -4.35547,0.29296 c 0.82682,10e-6 1.51692,-0.0391 2.07031,-0.11718 0.55989,-0.0781 1.00911,-0.19531 1.34766,-0.35157 0.33853,-0.15624 0.57941,-0.35156 0.72266,-0.58593 0.14321,-0.23438 0.21483,-0.50781 0.21484,-0.82032 -10e-6,-0.31249 -0.0847,-0.57616 -0.25391,-0.79101 -0.16277,-0.22135 -0.43946,-0.40039 -0.83007,-0.53711 -0.38413,-0.13671 -0.8952,-0.23437 -1.53321,-0.29297 -0.63803,-0.0651 -1.42579,-0.0976 -2.36328,-0.0977 -0.93751,10e-6 -1.69597,0.0163 -2.27539,0.0488 -0.57292,0.0326 -1.01563,0.10743 -1.32812,0.22461 -0.31251,0.11719 -0.5241,0.28972 -0.63477,0.51758 -0.10417,0.22787 -0.15625,0.53711 -0.15625,0.92773 0,0.39063 0.0553,0.70964 0.16602,0.95704 0.11718,0.24088 0.35155,0.42968 0.70312,0.5664 0.35156,0.13672 0.85612,0.23112 1.51367,0.2832 0.66406,0.0456 1.54296,0.0684 2.63672,0.0684"
         style="font-family:Michroma;-inkscape-font-specification:Michroma;fill:#333333;fill-opacity:1"
         id="path3931" />
      <path
         d="m 689.9054,271.80667 c 0.72915,10e-6 1.3509,0.013 1.86523,0.0391 0.51431,0.0195 0.944,0.0586 1.28906,0.11719 0.35155,0.0521 0.62825,0.12045 0.83008,0.20508 0.20181,0.0846 0.35481,0.21159 0.45898,0.38086 0.10416,0.16276 0.16926,0.32878 0.19532,0.49805 0.0325,0.16276 0.0488,0.35156 0.0488,0.5664 -2e-5,0.23438 -0.0163,0.44922 -0.0488,0.64453 -0.0261,0.18881 -0.0944,0.36133 -0.20508,0.51758 -0.11069,0.15625 -0.27345,0.28972 -0.48828,0.40039 -0.21486,0.11068 -0.50783,0.20508 -0.87891,0.2832 -0.3711,0.0781 -0.83334,0.13672 -1.38672,0.17579 -0.54688,0.0326 -1.21094,0.0488 -1.99218,0.0488 -0.85939,10e-6 -1.57228,-0.0228 -2.13868,-0.0684 -0.5599,-0.0521 -1.00586,-0.14648 -1.33789,-0.2832 -0.33203,-0.13672 -0.56641,-0.32552 -0.70312,-0.5664 -0.13021,-0.2474 -0.19532,-0.56641 -0.19531,-0.95704 l -1.875,0 c -10e-6,0.59245 0.10416,1.09376 0.3125,1.50391 0.21484,0.41016 0.5664,0.74544 1.05468,1.00586 0.48828,0.25391 1.12956,0.43945 1.92383,0.55664 0.80078,0.11719 1.7871,0.17578 2.95899,0.17578 0.93749,0 1.7578,-0.0293 2.46093,-0.0879 0.70963,-0.0521 1.31835,-0.13346 1.82617,-0.24414 0.50781,-0.11719 0.92773,-0.26693 1.25977,-0.44922 0.33853,-0.1888 0.60546,-0.41015 0.80078,-0.66406 0.1953,-0.26042 0.33202,-0.55664 0.41016,-0.88867 0.0781,-0.33854 0.11717,-0.7194 0.11719,-1.14258 -2e-5,-0.42317 -0.0391,-0.79427 -0.11719,-1.11328 -0.0781,-0.32552 -0.21486,-0.60547 -0.41016,-0.83985 -0.18881,-0.24088 -0.44272,-0.46223 -0.76172,-0.66406 -0.31902,-0.20181 -0.72267,-0.35155 -1.21093,-0.44922 -0.4883,-0.0976 -1.06772,-0.16601 -1.73829,-0.20508 -0.66407,-0.039 -1.43881,-0.0586 -2.32421,-0.0586 -0.72918,10e-6 -1.35092,10e-6 -1.86524,0 -0.51433,-0.007 -0.94727,-0.026 -1.29883,-0.0586 -0.34505,-0.0391 -0.61849,-0.0944 -0.82031,-0.16602 -0.20183,-0.0716 -0.35482,-0.17577 -0.45898,-0.3125 -0.10417,-0.13671 -0.17253,-0.30924 -0.20508,-0.51758 -0.0261,-0.21483 -0.0391,-0.43293 -0.0391,-0.65429 -10e-6,-0.3776 0.0846,-0.67382 0.2539,-0.88868 0.16927,-0.21483 0.44922,-0.37433 0.83985,-0.47851 0.39062,-0.10416 0.90494,-0.16926 1.54296,-0.19531 0.63802,-0.026 1.42578,-0.0391 2.36329,-0.0391 0.85936,10e-6 1.569,0.0261 2.1289,0.0781 0.5664,0.0456 1.01562,0.13347 1.34766,0.26367 0.33202,0.12371 0.56314,0.29623 0.69336,0.51758 0.1367,0.22136 0.20506,0.50782 0.20508,0.85937 l 1.875,0 c -2e-5,-0.56639 -0.0944,-1.05467 -0.28321,-1.46484 -0.18881,-0.41015 -0.52084,-0.74869 -0.99609,-1.01562 -0.46876,-0.27343 -1.10678,-0.47525 -1.91406,-0.60547 -0.8008,-0.1302 -1.81967,-0.1953 -3.05664,-0.19532 -1.25001,2e-5 -2.31121,0.0553 -3.1836,0.16602 -0.8724,0.11069 -1.58203,0.29298 -2.1289,0.54687 -0.54688,0.24741 -0.94402,0.57293 -1.19141,0.97657 -0.2474,0.39714 -0.3711,0.88868 -0.37109,1.47461 -10e-6,0.42969 0.0391,0.83008 0.11718,1.20117 0.0781,0.36459 0.21159,0.67383 0.40039,0.92773 0.1888,0.2474 0.44271,0.44597 0.76172,0.59571 0.32552,0.14974 0.72917,0.26693 1.21094,0.35156 0.48828,0.0781 1.0677,0.13021 1.73828,0.15625 0.67057,0.026 1.44856,0.0391 2.33399,0.0391"
         style="font-family:Michroma;-inkscape-font-specification:Michroma;fill:#333333;fill-opacity:1"
         id="path3933" />
      <path
         d="m 704.2804,276.93362 0.625,0 c -0.10418,0.20834 -0.19858,0.4069 -0.28321,0.59571 -0.0781,0.1888 -0.17579,0.36458 -0.29297,0.52734 -0.11719,0.16276 -0.26367,0.30924 -0.43945,0.43945 -0.17579,0.13021 -0.41016,0.24089 -0.70312,0.33204 -0.28647,0.0976 -0.64454,0.16926 -1.07422,0.21484 -0.42969,0.0521 -0.95704,0.0781 -1.58203,0.0781 l 0,1.5625 c 0.72916,0 1.36067,-0.0358 1.89453,-0.10742 0.53385,-0.0651 0.99283,-0.16276 1.37695,-0.29297 0.39062,-0.1237 0.71939,-0.27669 0.98633,-0.45898 0.26692,-0.1823 0.49804,-0.39063 0.69336,-0.625 0.1953,-0.22787 0.36783,-0.48177 0.51758,-0.76172 0.15624,-0.27344 0.31249,-0.56641 0.46875,-0.87891 l 0.3125,-0.625 5.625,-11.25 -2.1875,0 -4.6875,10 -5,-10 -2.1875,0 5.9375,11.25"
         style="font-family:Michroma;-inkscape-font-specification:Michroma;fill:#333333;fill-opacity:1"
         id="path3935" />
    </g>
    <g
       style="fill:#a94040;fill-opacity:1"
       id="g7364"
       transform="matrix(0.15108144,0,0,-0.15108144,113.69532,260.05492)">
      <g
         style="fill:#a94040;fill-opacity:1"
         id="g7366"
         clip-path="url(#clipPath3340)">
        <g
           style="fill:#a94040;fill-opacity:1"
           id="g7368"
           transform="translate(479.625,63.6318)">
          <path
             inkscape:connector-curvature="0"
             style="fill:#a94040;fill-opacity:1;fill-rule:evenodd;stroke:none"
             id="path7370"
             d="m 6.999,197.976 c -24.452,25.825 -26.061,62.251 -56.993,78.99 -3.776,2.455 -11.846,15.296 -13.276,16.767 -1.678,1.727 -1.907,2.664 -4.721,5.23 -2.04,1.859 -10.999,9.909 -15.998,11.998 -4.094,1.71 -3.156,1.397 -6.594,2.772 -2.637,0.305 -4.375,1.244 -6.187,0.728 -1.688,0 -1.938,0.125 -5,-1.5 -2.932,0.067 -3.313,-2.04 -4.217,-2 -5.099,-3.232 -10.4,-6.264 -16.997,-7.999 -40.433,9.509 -77.363,20.796 -111.987,39.995 -18.237,1.705 -32.018,8.915 -49.993,5 -4.014,-2.201 -5.78,-7.684 -10.999,-8 -4.052,-0.244 -4.326,2.134 -6.597,2.119 -4.26,4.328 -12.065,9.549 -18.4,13.879 -2.998,10.716 -4.331,21.466 0.701,25.556 4.301,-0.174 3.801,1.91 9.298,1.441 5.412,12.853 19.465,10.272 30.996,4 6.622,2.638 11.734,0.057 15.32,-0.531 5.25,-1.688 10.021,1.166 11.677,-4.469 32.99,-3.785 59.109,-20.182 95.988,-18.997 3.566,4.099 5.87,9.461 9.999,12.998 5.69,13.801 2.126,27.293 6.999,36.995 -12.706,8.945 -18.476,27.984 -26.997,42.995 6.044,23.963 -22.341,23.805 -29.996,38.995 0.955,0.139 2.733,1.473 1.999,1 8.974,5.786 28.852,-2.891 38.996,2 5.041,4.67 8.973,4.312 15.998,6.999 1.941,1.317 0,0 2.941,3.15 2.083,1.75 1.902,1.414 3.833,2.75 1.875,3.77 2.751,4 6.084,7.334 3.596,3.597 5.427,7.855 4.979,7.187 0.397,0.592 2.788,5.145 3.354,6.146 0.413,0.729 1.751,4.252 1.75,4.25 0.482,2.507 0.166,1.344 2.083,5.761 0.838,1.034 0.204,1.146 2.75,4.656 3.125,9.375 7.62,18.255 12.221,18.758 7.398,-12.913 7.564,-28.936 4.279,-40.133 1.042,-2.459 0.417,-0.917 1,-2.042 1.656,-0.951 0.654,-0.458 2.313,-1.521 2.355,0.023 2.812,-0.062 5.406,-1.298 14.337,-18.325 30.404,-34.921 51.993,-45.994 0,22.529 4.413,56.677 -4.999,74.991 -0.558,1.888 -7.015,12.438 -6.463,20.989 -0.083,2.75 -3.583,10.166 -3.75,19.75 -5.5,4.75 -3.771,12.48 -11.625,13.625 -0.631,3.163 -2.548,9.829 0.285,14.579 2.125,1.876 4.924,8.712 9.507,13.546 6.333,1.5 10.046,1.5 15.046,1.5 2.037,-0.959 5.329,-0.75 8.079,-1.542 2.768,-0.525 2.5,-0.958 3.919,-1.458 7.288,-6.711 13.539,-22.667 17.998,-23.997 1.875,-1.003 2.375,-2.503 3.458,-3.753 4.917,-11.192 -7.892,-12.53 -7.458,-23.243 0.408,-10.048 5.872,-27.672 7.999,-39.995 6.405,-37.096 23.277,-76.736 15.999,-122.985 -0.165,-1.902 0.377,-0.736 1.71,-4.611 1.498,-19.964 8.314,-31.706 19.287,-46.382 5.665,-7.578 12.213,-16.5 17.998,-22.998" />
        </g>
      </g>
    </g>
    <path
       style="fill:none;stroke:url(#linearGradient3963);stroke-width:6;stroke-linecap:butt;stroke-linejoin:miter;stroke-miterlimit:4;stroke-opacity:1;stroke-dasharray:none"
       d="m 57.073619,210.90511 c 26.004684,79.15973 241.496251,53.20705 285.069241,48.74278 136.53265,-14.28571 368.4128,-9.28571 368.4128,-9.28571"
       id="path3947"
       inkscape:connector-curvature="0"
       sodipodi:nodetypes="ccc" />
  </g>
</svg>
