<?xml version="1.0" encoding="UTF-8" standalone="no"?>
<!-- Created with Inkscape (http://www.inkscape.org/) -->

<svg
   xmlns:dc="http://purl.org/dc/elements/1.1/"
   xmlns:cc="http://creativecommons.org/ns#"
   xmlns:rdf="http://www.w3.org/1999/02/22-rdf-syntax-ns#"
   xmlns:svg="http://www.w3.org/2000/svg"
   xmlns="http://www.w3.org/2000/svg"
   xmlns:sodipodi="http://sodipodi.sourceforge.net/DTD/sodipodi-0.dtd"
   xmlns:inkscape="http://www.inkscape.org/namespaces/inkscape"
   version="1.2"
   width="686.0575"
   height="146.05185"
   id="svg2"
   inkscape:version="0.48.4 r9939"
   sodipodi:docname="logo.svg">
  <sodipodi:namedview
     pagecolor="#ffffff"
     bordercolor="#666666"
     borderopacity="1"
     objecttolerance="10"
     gridtolerance="10"
     guidetolerance="10"
     inkscape:pageopacity="0"
     inkscape:pageshadow="2"
     inkscape:window-width="1920"
     inkscape:window-height="1056"
     id="namedview4483"
     showgrid="false"
     fit-margin-top="0"
     fit-margin-left="0"
     fit-margin-right="0"
     fit-margin-bottom="0"
     inkscape:zoom="2.0366599"
     inkscape:cx="358.98443"
     inkscape:cy="-31.115846"
     inkscape:window-x="0"
     inkscape:window-y="24"
     inkscape:window-maximized="1"
     inkscape:current-layer="svg2" />
  <defs
     id="defs4">
    <clipPath
       id="clipPath3456">
      <path
         d="m 0,841.89 1190.55,0 L 1190.55,0 0,0 0,841.89 z"
         id="path3458"
         inkscape:connector-curvature="0" />
    </clipPath>
    <clipPath
       id="clipPath3400">
      <path
         d="m 0,841.89 1190.55,0 L 1190.55,0 0,0 0,841.89 z"
         id="path3402"
         inkscape:connector-curvature="0" />
    </clipPath>
    <clipPath
       id="clipPath3356">
      <path
         d="m 0,841.89 1190.55,0 L 1190.55,0 0,0 0,841.89 z"
         id="path3358"
         inkscape:connector-curvature="0" />
    </clipPath>
    <clipPath
       id="clipPath3340">
      <path
         d="m 0,841.89 1190.55,0 L 1190.55,0 0,0 0,841.89 z"
         id="path3342"
         inkscape:connector-curvature="0" />
    </clipPath>
    <clipPath
       id="clipPath3280">
      <path
         d="m 0,841.89 1190.55,0 L 1190.55,0 0,0 0,841.89 z"
         id="path3282"
         inkscape:connector-curvature="0" />
    </clipPath>
    <clipPath
       id="clipPath3032">
      <path
         d="m 0,841.89 1190.55,0 L 1190.55,0 0,0 0,841.89 z"
         id="path3034"
         inkscape:connector-curvature="0" />
    </clipPath>
    <clipPath
       id="clipPath3018">
      <path
         d="m 201,98.969 602.925,0 0,639.92 -602.925,0 0,-639.92 z"
         id="path3020"
         inkscape:connector-curvature="0" />
    </clipPath>
    <clipPath
       id="clipPath4242">
      <path
         d="m 0,841.89 1190.55,0 L 1190.55,0 0,0 0,841.89 z"
         id="path4244"
         inkscape:connector-curvature="0" />
    </clipPath>
    <clipPath
       id="clipPath4186">
      <path
         d="m 0,841.89 1190.55,0 L 1190.55,0 0,0 0,841.89 z"
         id="path4188"
         inkscape:connector-curvature="0" />
    </clipPath>
    <clipPath
       id="clipPath4144">
      <path
         d="m 0,841.89 1190.55,0 L 1190.55,0 0,0 0,841.89 z"
         id="path4146"
         inkscape:connector-curvature="0" />
    </clipPath>
    <clipPath
       id="clipPath4128">
      <path
         d="m 0,841.89 1190.55,0 L 1190.55,0 0,0 0,841.89 z"
         id="path4130"
         inkscape:connector-curvature="0" />
    </clipPath>
    <clipPath
       id="clipPath4068">
      <path
         d="m 0,841.89 1190.55,0 L 1190.55,0 0,0 0,841.89 z"
         id="path4070"
         inkscape:connector-curvature="0" />
    </clipPath>
    <clipPath
       id="clipPath3820">
      <path
         d="m 0,841.89 1190.55,0 L 1190.55,0 0,0 0,841.89 z"
         id="path3822"
         inkscape:connector-curvature="0" />
    </clipPath>
    <clipPath
       id="clipPath3806">
      <path
         d="m 201,98.969 602.925,0 0,639.92 -602.925,0 0,-639.92 z"
         id="path3808"
         inkscape:connector-curvature="0" />
    </clipPath>
    <clipPath
       id="clipPath3340-7">
      <path
         d="m 0,841.89 1190.55,0 L 1190.55,0 0,0 0,841.89 z"
         id="path3342-2"
         inkscape:connector-curvature="0" />
    </clipPath>
    <clipPath
       id="clipPath7164">
      <path
         d="m 0,841.89 1190.55,0 L 1190.55,0 0,0 0,841.89 z"
         id="path7166"
         inkscape:connector-curvature="0" />
    </clipPath>
    <clipPath
       id="clipPath3340-9">
      <path
         d="m 0,841.89 1190.55,0 L 1190.55,0 0,0 0,841.89 z"
         id="path3342-4"
         inkscape:connector-curvature="0" />
    </clipPath>
    <clipPath
       id="clipPath7229">
      <path
         d="m 0,841.89 1190.55,0 L 1190.55,0 0,0 0,841.89 z"
         id="path7231"
         inkscape:connector-curvature="0" />
    </clipPath>
    <clipPath
       id="clipPath3340-2">
      <path
         d="m 0,841.89 1190.55,0 L 1190.55,0 0,0 0,841.89 z"
         id="path3342-5"
         inkscape:connector-curvature="0" />
    </clipPath>
    <clipPath
       id="clipPath7414">
      <path
         d="m 0,841.89 1190.55,0 L 1190.55,0 0,0 0,841.89 z"
         id="path7416"
         inkscape:connector-curvature="0" />
    </clipPath>
  </defs>
  <metadata
     id="metadata7">
    <rdf:RDF>
      <cc:Work
         rdf:about="">
        <dc:format>image/svg+xml</dc:format>
        <dc:type
           rdf:resource="http://purl.org/dc/dcmitype/StillImage" />
        <dc:title />
      </cc:Work>
    </rdf:RDF>
  </metadata>
  <flowRoot
     style="font-size:20px;font-style:normal;font-variant:normal;font-weight:normal;font-stretch:normal;line-height:125%;letter-spacing:0px;word-spacing:0px;fill:#000000;fill-opacity:1;stroke:none;font-family:PT Sans;-inkscape-font-specification:PT Sans"
     xml:space="preserve"
     id="flowRoot7134"
     transform="translate(-33.280293,-30.078456)"><flowRegion
       id="flowRegion7136"><rect
         id="rect7138"
         y="-173.96301"
         x="991.96979"
         height="888.93427"
         width="1006.1119" /></flowRegion><flowPara
       id="flowPara7140" /></flowRoot>  <flowRoot
     style="font-size:20px;font-style:normal;font-variant:normal;font-weight:normal;font-stretch:normal;line-height:125%;letter-spacing:0px;word-spacing:0px;fill:#000000;fill-opacity:1;stroke:none;font-family:PT Sans;-inkscape-font-specification:PT Sans"
     xml:space="preserve"
     id="flowRoot7142"
     transform="translate(-33.280293,-30.078456)"><flowRegion
       id="flowRegion7144"><rect
         id="rect7146"
         y="-333.56711"
         x="951.56372"
         height="573.76666"
         width="628.31488" /></flowRegion><flowPara
       id="flowPara7148" /></flowRoot>  <g
     style="fill:#a94040;fill-opacity:1"
     id="g3336"
     transform="matrix(0.16786827,0,0,-0.16786827,92.291247,126.95996)">
    <g
       style="fill:#a94040;fill-opacity:1"
       id="g3338"
       clip-path="url(#clipPath3340)">
      <g
         style="fill:#a94040;fill-opacity:1"
         id="g3344"
         transform="translate(479.625,63.6318)">
        <path
           inkscape:connector-curvature="0"
           style="fill:#a94040;fill-opacity:1;fill-rule:evenodd;stroke:none"
           id="path3346"
           d="m 0,0 c -4.206,-3.23 -9.739,-4.173 -10.999,-3.999 -7.959,3.603 -23.367,9.229 -14.998,19.997 20.98,4.018 25.619,24.375 33.996,40.995 -4.84,19.547 -19.27,36.164 -6.999,50.993 -0.659,25.542 -1.387,43.791 8.999,62.993 -4.015,-0.652 -6.823,-2.51 -9.999,-4 -24.467,-1.139 -57.08,-11.806 -87.989,-12.999 -36.649,-1.413 -69.405,7.026 -99.988,17.999 -1.986,2.012 -1.986,2.012 -1.999,3.999 3.204,9.493 29.444,4.931 41.995,3 14.509,-2.233 29.756,-5.875 42.994,-5.999 40.804,-0.382 76.895,17.534 111.986,24.997 -24.452,25.825 -26.061,62.251 -56.993,78.99 -3.776,2.455 -11.846,15.296 -13.276,16.767 -1.678,1.727 -1.907,2.664 -4.721,5.23 -2.04,1.859 -10.999,9.909 -15.998,11.998 -4.094,1.71 -3.156,1.397 -6.594,2.772 -2.637,0.305 -4.375,1.244 -6.187,0.728 -1.688,0 -1.938,0.125 -5,-1.5 -2.932,0.067 -3.313,-2.04 -4.217,-2 -5.099,-3.232 -10.4,-6.264 -16.997,-7.999 -40.433,9.509 -77.363,20.796 -111.987,39.995 -18.237,1.705 -32.018,8.915 -49.993,5 -4.014,-2.201 -5.78,-7.684 -10.999,-8 -4.052,-0.244 -4.326,2.134 -6.597,2.119 -4.26,4.328 -12.065,9.549 -18.4,13.879 -2.998,10.716 -4.331,21.466 0.701,25.556 4.301,-0.174 3.801,1.91 9.298,1.441 5.412,12.853 19.465,10.272 30.996,4 6.622,2.638 11.734,0.057 15.32,-0.531 5.25,-1.688 10.021,1.166 11.677,-4.469 32.99,-3.785 59.109,-20.182 95.988,-18.997 3.566,4.099 5.87,9.461 9.999,12.998 5.69,13.801 2.126,27.293 6.999,36.995 -12.706,8.945 -18.476,27.984 -26.997,42.995 6.044,23.963 -22.341,23.805 -29.996,38.995 0.955,0.139 2.733,1.473 1.999,1 8.974,5.786 28.852,-2.891 38.996,2 5.041,4.67 8.973,4.312 15.998,6.999 1.941,1.317 0,0 2.941,3.15 2.083,1.75 1.902,1.414 3.833,2.75 1.875,3.77 2.751,4 6.084,7.334 3.596,3.597 5.427,7.855 4.979,7.187 0.397,0.592 2.788,5.145 3.354,6.146 0.413,0.729 1.751,4.252 1.75,4.25 0.482,2.507 0.166,1.344 2.083,5.761 0.838,1.034 0.204,1.146 2.75,4.656 3.125,9.375 7.62,18.255 12.221,18.758 7.398,-12.913 7.564,-28.936 4.279,-40.133 1.042,-2.459 0.417,-0.917 1,-2.042 1.656,-0.951 0.654,-0.458 2.313,-1.521 2.355,0.023 2.812,-0.062 5.406,-1.298 14.337,-18.325 30.404,-34.921 51.993,-45.994 0,22.529 4.413,56.677 -4.999,74.991 -0.558,1.888 -7.015,12.438 -6.463,20.989 -0.083,2.75 -3.583,10.166 -3.75,19.75 -5.5,4.75 -3.771,12.48 -11.625,13.625 -0.631,3.163 -2.548,9.829 0.285,14.579 2.125,1.876 4.924,8.712 9.507,13.546 6.333,1.5 10.046,1.5 15.046,1.5 2.037,-0.959 5.329,-0.75 8.079,-1.542 2.768,-0.525 2.5,-0.958 3.919,-1.458 7.288,-6.711 13.539,-22.667 17.998,-23.997 1.875,-1.003 2.375,-2.503 3.458,-3.753 4.917,-11.192 -7.892,-12.53 -7.458,-23.243 0.408,-10.048 5.872,-27.672 7.999,-39.995 6.405,-37.096 23.277,-76.736 15.999,-122.985 -0.165,-1.902 0.377,-0.736 1.71,-4.611 1.498,-19.964 8.314,-31.706 19.287,-46.382 5.665,-7.578 12.213,-16.5 17.998,-22.998 4.501,-5.057 7.071,-7.936 10.999,-12.998 6.486,-8.363 16.278,-13.255 22.997,-20.997 3.599,-4.15 7.301,-10.392 11.998,-15.998 5.388,-6.432 7.426,-12.71 10.999,-18.998 5.128,-9.028 13.015,-15.32 17.997,-24.997 10.741,-11.257 20.055,-23.941 30.996,-34.995 3.207,-3.916 19.522,-18.189 23.188,-24.428 1.625,-1.75 1.908,-4.34 1.625,-5.875 -0.174,-4.451 -0.609,-9.004 0.375,-10.375 2.75,-3.188 4.121,-4.376 10.809,-5.317 5.679,-0.798 14.709,-4.79 21.996,-6 10.107,-1.676 22.15,0.675 32.32,1.661 8.582,-3.803 7.654,-6.68 8.676,-9.66 1.199,-4.028 -2.02,-5.497 -1.489,-8.653 -0.402,-0.525 0.19,-1.081 -1.187,-1.125 1.904,-3.644 -2.707,-10.831 -10.324,-7.219 -1.028,-2.97 -2.285,-5.713 -5.998,-6 -22.008,10.99 -51.153,14.84 -76.991,21.998 -3.937,5.107 -6.105,3.524 -11.998,9.998 -26.576,-10.918 -61.995,-11.871 -79.99,-28.996 -2.787,-20.211 -28.897,-22.868 -28.575,-46.187 -0.618,-3.985 -1.452,-6.549 -3.25,-11.5 -3.869,-5.341 -3.89,-10.688 -6.125,-13.709 -0.718,-0.51 -1.291,-4.791 -1.045,-6.594 1.295,-7.947 -1.826,-8.112 -2.455,-15.197 -0.125,-4.375 -1.25,-3.75 -10.5,-13.75" />
      </g>
    </g>
  </g>
  <path
     inkscape:connector-curvature="0"
     style="fill:none;stroke:#808080;stroke-width:8;stroke-linecap:round;stroke-linejoin:miter;stroke-miterlimit:4;stroke-opacity:1;stroke-dasharray:none"
     id="path5351"
     d="M 14.015754,112.38578 C 16.337183,62.921498 -8.8466449,47.054029 12.939069,24.554029 23.643428,13.498707 64.917479,4.5017248 106.6166,4.0158708" />
  <text
     sodipodi:linespacing="125%"
     style="font-size:20px;font-style:normal;font-variant:normal;font-weight:normal;font-stretch:normal;line-height:125%;letter-spacing:0px;word-spacing:0px;fill:#000000;fill-opacity:1;stroke:none;font-family:PT Sans;-inkscape-font-specification:PT Sans"
     xml:space="preserve"
     id="text7047"
     y="96.28373"
     x="9.4339933"><tspan
       style="font-size:144px;font-style:normal;font-variant:normal;font-weight:normal;font-stretch:normal;letter-spacing:0px;font-family:Baloo;-inkscape-font-specification:Baloo"
       id="tspan7049"
       rotate="0 0 0 0 0 0 0 0 0 0"
       y="96.28373"
       x="9.4339933">omg-tools</tspan></text>
  <path
     inkscape:connector-curvature="0"
     style="fill:none;stroke:#808080;stroke-width:8;stroke-linecap:round;stroke-linejoin:miter;stroke-miterlimit:4;stroke-opacity:1;stroke-dasharray:16, 16;stroke-dashoffset:44.8"
     id="path7150"
     d="m 106.6166,4.0158708 c 43.16773,-0.502965 98.87664,11.0009052 107.30915,27.0862092 7.78213,14.844695 -7.68288,61.936474 -0.87864,85.01974 4.37065,14.82736 37.40694,21.49164 67.23917,5.08506 5.69552,-3.13231 27.61225,-17.19655 57.19802,-15.87508 16.75878,0.74854 342.14967,1.62672 344.57322,1.16359"
     sodipodi:nodetypes="cssssc" />
  <g
     style="font-size:20px;font-style:normal;font-variant:normal;font-weight:normal;font-stretch:normal;line-height:125%;letter-spacing:0px;word-spacing:0px;fill:#000000;fill-opacity:1;stroke:none;font-family:PT Sans;-inkscape-font-specification:PT Sans"
     id="text7055">
    <path
       d="m 314.27672,121.49986 c 0.98399,2e-5 1.94399,0.14402 2.88,0.432 0.95999,0.26402 1.78799,0.67202 2.484,1.224 0.71999,-0.47998 1.52399,-0.87598 2.412,-1.188 0.91198,-0.31198 2.00398,-0.46798 3.276,-0.468 0.91198,2e-5 1.79998,0.12002 2.664,0.36 0.88798,0.24002 1.66798,0.62402 2.34,1.152 0.69598,0.50401 1.24798,1.18801 1.656,2.052 0.40798,0.84001 0.61198,1.87201 0.612,3.096 l 0,11.34 c -0.24002,0.072 -0.62402,0.144 -1.152,0.216 -0.50402,0.072 -1.03202,0.108 -1.584,0.108 -0.52802,0 -1.00802,-0.036 -1.44,-0.108 -0.40802,-0.072 -0.75602,-0.216 -1.044,-0.432 -0.28802,-0.216 -0.51602,-0.504 -0.684,-0.864 -0.14402,-0.384 -0.21602,-0.876 -0.216,-1.476 l 0,-8.604 c -2e-5,-0.71999 -0.20402,-1.23599 -0.612,-1.548 -0.40802,-0.33599 -0.96002,-0.50399 -1.656,-0.504 -0.33602,1e-5 -0.69602,0.084 -1.08,0.252 -0.38402,0.14401 -0.67201,0.30001 -0.864,0.468 0.024,0.096 0.036,0.19201 0.036,0.288 -10e-6,0.072 -10e-6,0.14401 0,0.216 l 0,11.988 c -0.26401,0.072 -0.66001,0.144 -1.188,0.216 -0.50401,0.072 -1.02001,0.108 -1.548,0.108 -0.52801,0 -1.00801,-0.036 -1.44,-0.108 -0.40801,-0.072 -0.75601,-0.216 -1.044,-0.432 -0.28801,-0.216 -0.51601,-0.504 -0.684,-0.864 -0.14401,-0.384 -0.21601,-0.876 -0.216,-1.476 l 0,-8.604 c -1e-5,-0.71999 -0.22801,-1.23599 -0.684,-1.548 -0.43201,-0.33599 -0.96001,-0.50399 -1.584,-0.504 -0.43201,1e-5 -0.80401,0.072 -1.116,0.216 -0.312,0.12001 -0.576,0.24001 -0.792,0.36 l 0,12.636 c -0.24,0.072 -0.624,0.144 -1.152,0.216 -0.504,0.072 -1.032,0.108 -1.584,0.108 -0.528,0 -1.008,-0.036 -1.44,-0.108 -0.408,-0.072 -0.756,-0.216 -1.044,-0.432 -0.288,-0.216 -0.516,-0.504 -0.684,-0.864 -0.144,-0.384 -0.216,-0.876 -0.216,-1.476 l 0,-10.872 c 0,-0.64799 0.132,-1.16399 0.396,-1.548 0.288,-0.38399 0.672,-0.74399 1.152,-1.08 0.816,-0.57599 1.824,-1.04398 3.024,-1.404 1.224,-0.35998 2.49599,-0.53998 3.816,-0.54"
       style="font-size:36px;letter-spacing:-2.98000002px;font-family:Baloo;-inkscape-font-specification:Baloo"
       id="path3156" />
    <path
       d="m 351.46204,130.78786 c -2e-5,1.48801 -0.22802,2.82 -0.684,3.996 -0.45602,1.152 -1.10402,2.124 -1.944,2.916 -0.81602,0.792 -1.80002,1.392 -2.952,1.8 -1.15202,0.408 -2.43602,0.612 -3.852,0.612 -1.41601,0 -2.70001,-0.216 -3.852,-0.648 -1.15201,-0.432 -2.14801,-1.044 -2.988,-1.836 -0.81601,-0.816 -1.45201,-1.8 -1.908,-2.952 -0.456,-1.152 -0.684,-2.44799 -0.684,-3.888 0,-1.41599 0.228,-2.69999 0.684,-3.852 0.45599,-1.15199 1.09199,-2.12399 1.908,-2.916 0.83999,-0.81599 1.83599,-1.43998 2.988,-1.872 1.15199,-0.43198 2.43599,-0.64798 3.852,-0.648 1.41598,2e-5 2.69998,0.22802 3.852,0.684 1.15198,0.43202 2.13598,1.05601 2.952,1.872 0.83998,0.79201 1.48798,1.76401 1.944,2.916 0.45598,1.15201 0.68398,2.42401 0.684,3.816 m -12.6,0 c -10e-6,1.46401 0.27599,2.592 0.828,3.384 0.57599,0.768 1.36799,1.152 2.376,1.152 1.00798,0 1.77598,-0.396 2.304,-1.188 0.55198,-0.792 0.82798,-1.90799 0.828,-3.348 -2e-5,-1.43999 -0.27602,-2.54399 -0.828,-3.312 -0.55202,-0.79199 -1.33201,-1.18799 -2.34,-1.188 -1.00801,1e-5 -1.78801,0.39601 -2.34,1.188 -0.55201,0.76801 -0.82801,1.87201 -0.828,3.312"
       style="font-size:36px;letter-spacing:-2.98000002px;font-family:Baloo;-inkscape-font-specification:Baloo"
       id="path3158" />
    <path
       d="m 357.58779,133.52386 c -10e-6,0.624 0.19199,1.068 0.576,1.332 0.40799,0.264 0.97199,0.396 1.692,0.396 0.35999,0 0.73199,-0.024 1.116,-0.072 0.38399,-0.072 0.71998,-0.156 1.008,-0.252 0.21598,0.264 0.39598,0.564 0.54,0.9 0.16798,0.312 0.25198,0.696 0.252,1.152 -2e-5,0.912 -0.34802,1.656 -1.044,2.232 -0.67201,0.576 -1.87201,0.864 -3.6,0.864 -2.11201,0 -3.74401,-0.48 -4.896,-1.44 -1.12801,-0.96 -1.692,-2.52 -1.692,-4.68 l 0,-15.408 c 0.26399,-0.072 0.63599,-0.14398 1.116,-0.216 0.50399,-0.096 1.03199,-0.14398 1.584,-0.144 1.05599,2e-5 1.87199,0.19202 2.448,0.576 0.59999,0.36002 0.89999,1.14002 0.9,2.34 l 0,2.304 4.716,0 c 0.14398,0.26401 0.27598,0.60001 0.396,1.008 0.14398,0.38401 0.21598,0.81601 0.216,1.296 -2e-5,0.84001 -0.19202,1.45201 -0.576,1.836 -0.36002,0.36001 -0.85201,0.54001 -1.476,0.54 l -3.276,0 0,5.436"
       style="font-size:36px;letter-spacing:-2.98000002px;font-family:Baloo;-inkscape-font-specification:Baloo"
       id="path3160" />
    <path
       d="m 362.75785,117.17986 c 0,-0.91198 0.3,-1.67998 0.9,-2.304 0.624,-0.62398 1.44,-0.93598 2.448,-0.936 1.00799,2e-5 1.81199,0.31202 2.412,0.936 0.62399,0.62402 0.93599,1.39202 0.936,2.304 -10e-6,0.91202 -0.31201,1.68002 -0.936,2.304 -0.60001,0.62402 -1.40401,0.93602 -2.412,0.936 -1.008,2e-5 -1.824,-0.31198 -2.448,-0.936 -0.6,-0.62398 -0.9,-1.39198 -0.9,-2.304 m 6.408,22.32 c -0.26401,0.048 -0.66001,0.108 -1.188,0.18 -0.50401,0.096 -1.02001,0.144 -1.548,0.144 -0.528,0 -1.008,-0.036 -1.44,-0.108 -0.408,-0.072 -0.756,-0.216 -1.044,-0.432 -0.288,-0.216 -0.516,-0.504 -0.684,-0.864 -0.144,-0.384 -0.216,-0.876 -0.216,-1.476 l 0,-14.652 c 0.264,-0.048 0.648,-0.10798 1.152,-0.18 0.528,-0.096 1.056,-0.14398 1.584,-0.144 0.52799,2e-5 0.99599,0.036 1.404,0.108 0.43199,0.072 0.79199,0.21602 1.08,0.432 0.28799,0.21601 0.50399,0.51601 0.648,0.9 0.16799,0.36001 0.25199,0.84001 0.252,1.44 l 0,14.652"
       style="font-size:36px;letter-spacing:-2.98000002px;font-family:Baloo;-inkscape-font-specification:Baloo"
       id="path3162" />
    <path
       d="m 388.15485,130.78786 c -2e-5,1.48801 -0.22802,2.82 -0.684,3.996 -0.45602,1.152 -1.10402,2.124 -1.944,2.916 -0.81602,0.792 -1.80002,1.392 -2.952,1.8 -1.15201,0.408 -2.43601,0.612 -3.852,0.612 -1.41601,0 -2.70001,-0.216 -3.852,-0.648 -1.15201,-0.432 -2.148,-1.044 -2.988,-1.836 -0.816,-0.816 -1.452,-1.8 -1.908,-2.952 -0.456,-1.152 -0.684,-2.44799 -0.684,-3.888 0,-1.41599 0.228,-2.69999 0.684,-3.852 0.456,-1.15199 1.092,-2.12399 1.908,-2.916 0.84,-0.81599 1.83599,-1.43998 2.988,-1.872 1.15199,-0.43198 2.43599,-0.64798 3.852,-0.648 1.41599,2e-5 2.69999,0.22802 3.852,0.684 1.15198,0.43202 2.13598,1.05601 2.952,1.872 0.83998,0.79201 1.48798,1.76401 1.944,2.916 0.45598,1.15201 0.68398,2.42401 0.684,3.816 m -12.6,0 c -10e-6,1.46401 0.27599,2.592 0.828,3.384 0.57599,0.768 1.36799,1.152 2.376,1.152 1.00799,0 1.77599,-0.396 2.304,-1.188 0.55199,-0.792 0.82799,-1.90799 0.828,-3.348 -10e-6,-1.43999 -0.27601,-2.54399 -0.828,-3.312 -0.55201,-0.79199 -1.33201,-1.18799 -2.34,-1.188 -1.00801,1e-5 -1.78801,0.39601 -2.34,1.188 -0.55201,0.76801 -0.82801,1.87201 -0.828,3.312"
       style="font-size:36px;letter-spacing:-2.98000002px;font-family:Baloo;-inkscape-font-specification:Baloo"
       id="path3164" />
    <path
       d="m 399.2486,128.44786 c -2e-5,-0.74399 -0.21602,-1.28399 -0.648,-1.62 -0.40801,-0.35999 -0.97201,-0.53999 -1.692,-0.54 -0.48001,1e-5 -0.96001,0.06 -1.44,0.18 -0.45601,0.12001 -0.85201,0.30001 -1.188,0.54 l 0,12.492 c -0.24001,0.072 -0.62401,0.144 -1.152,0.216 -0.50401,0.072 -1.03201,0.108 -1.584,0.108 -0.52801,0 -1.00801,-0.036 -1.44,-0.108 -0.40801,-0.072 -0.75601,-0.216 -1.044,-0.432 -0.28801,-0.216 -0.51601,-0.504 -0.684,-0.864 -0.144,-0.384 -0.216,-0.876 -0.216,-1.476 l 0,-10.8 c 0,-0.64799 0.132,-1.17599 0.396,-1.584 0.28799,-0.40799 0.67199,-0.77999 1.152,-1.116 0.81599,-0.57599 1.83599,-1.04398 3.06,-1.404 1.24799,-0.35998 2.62799,-0.53998 4.14,-0.54 2.71198,2e-5 4.79998,0.60002 6.264,1.8 1.46398,1.17601 2.19598,2.82001 2.196,4.932 l 0,11.268 c -0.24002,0.072 -0.62402,0.144 -1.152,0.216 -0.50402,0.072 -1.03202,0.108 -1.584,0.108 -0.52802,0 -1.00802,-0.036 -1.44,-0.108 -0.40802,-0.072 -0.75602,-0.216 -1.044,-0.432 -0.28802,-0.216 -0.51602,-0.504 -0.684,-0.864 -0.14402,-0.384 -0.21602,-0.876 -0.216,-1.476 l 0,-8.496"
       style="font-size:36px;letter-spacing:-2.98000002px;font-family:Baloo;-inkscape-font-specification:Baloo"
       id="path3166" />
    <path
       d="m 418.42391,121.49986 c 1.43999,2e-5 2.77199,0.19202 3.996,0.576 1.24799,0.36002 2.31598,0.92401 3.204,1.692 0.88798,0.76801 1.58398,1.74001 2.088,2.916 0.50398,1.15201 0.75598,2.53201 0.756,4.14 -2e-5,1.53601 -0.21602,2.88 -0.648,4.032 -0.43202,1.152 -1.04402,2.124 -1.836,2.916 -0.79202,0.768 -1.75202,1.344 -2.88,1.728 -1.10401,0.384 -2.34001,0.576 -3.708,0.576 -1.03201,0 -1.99201,-0.156 -2.88,-0.468 l 0,5.976 c -0.24001,0.072 -0.62401,0.14399 -1.152,0.216 -0.52801,0.096 -1.06801,0.14399 -1.62,0.144 -0.528,-1e-5 -1.008,-0.036 -1.44,-0.108 -0.408,-0.072 -0.756,-0.21601 -1.044,-0.432 -0.288,-0.21601 -0.504,-0.51601 -0.648,-0.9 -0.144,-0.36001 -0.216,-0.84001 -0.216,-1.44 l 0,-17.28 c 0,-0.64799 0.132,-1.17599 0.396,-1.584 0.288,-0.40799 0.672,-0.77999 1.152,-1.116 0.744,-0.47998 1.668,-0.86398 2.772,-1.152 1.10399,-0.28798 2.33999,-0.43198 3.708,-0.432 m 0.072,13.752 c 2.47199,0 3.70799,-1.476 3.708,-4.428 -1e-5,-1.53599 -0.31201,-2.67599 -0.936,-3.42 -0.60001,-0.74399 -1.47601,-1.11599 -2.628,-1.116 -0.45601,1e-5 -0.86401,0.06 -1.224,0.18 -0.36001,0.096 -0.67201,0.21601 -0.936,0.36 l 0,7.92 c 0.28799,0.144 0.59999,0.264 0.936,0.36 0.33599,0.096 0.69599,0.144 1.08,0.144"
       style="font-size:36px;letter-spacing:-2.98000002px;font-family:Baloo;-inkscape-font-specification:Baloo"
       id="path3168" />
    <path
       d="m 434.73766,139.49986 c -0.264,0.048 -0.66,0.108 -1.188,0.18 -0.504,0.096 -1.02,0.144 -1.548,0.144 -0.528,0 -1.008,-0.036 -1.44,-0.108 -0.408,-0.072 -0.756,-0.216 -1.044,-0.432 -0.288,-0.216 -0.516,-0.504 -0.684,-0.864 -0.144,-0.384 -0.216,-0.876 -0.216,-1.476 l 0,-20.88 c 0.264,-0.048 0.648,-0.10798 1.152,-0.18 0.528,-0.096 1.056,-0.14398 1.584,-0.144 0.528,2e-5 0.996,0.036 1.404,0.108 0.432,0.072 0.792,0.21602 1.08,0.432 0.288,0.21602 0.504,0.51602 0.648,0.9 0.168,0.36002 0.252,0.84002 0.252,1.44 l 0,20.88"
       style="font-size:36px;letter-spacing:-2.98000002px;font-family:Baloo;-inkscape-font-specification:Baloo"
       id="path3170" />
    <path
       d="m 443.07234,135.64786 c 0.40799,0 0.85199,-0.036 1.332,-0.108 0.50399,-0.096 0.87599,-0.216 1.116,-0.36 l 0,-2.88 -2.592,0.216 c -0.67201,0.048 -1.22401,0.192 -1.656,0.432 -0.43201,0.24 -0.64801,0.6 -0.648,1.08 -1e-5,0.48 0.17999,0.876 0.54,1.188 0.38399,0.288 1.01999,0.432 1.908,0.432 m -0.288,-14.148 c 1.29599,2e-5 2.47199,0.13202 3.528,0.396 1.07999,0.26402 1.99199,0.67202 2.736,1.224 0.76799,0.52801 1.35598,1.21201 1.764,2.052 0.40798,0.81601 0.61198,1.78801 0.612,2.916 l 0,8.064 c -2e-5,0.624 -0.18002,1.14 -0.54,1.548 -0.33602,0.384 -0.74402,0.72 -1.224,1.008 -1.56001,0.936 -3.75601,1.404 -6.588,1.404 -1.27201,0 -2.42401,-0.12 -3.456,-0.36 -1.008,-0.24 -1.884,-0.6 -2.628,-1.08 -0.72,-0.48 -1.284,-1.092 -1.692,-1.836 -0.384,-0.744 -0.576,-1.608 -0.576,-2.592 0,-1.65599 0.492,-2.92799 1.476,-3.816 0.984,-0.88799 2.508,-1.43999 4.572,-1.656 l 4.716,-0.504 0,-0.252 c -10e-6,-0.69599 -0.31201,-1.18799 -0.936,-1.476 -0.60001,-0.31199 -1.47601,-0.46799 -2.628,-0.468 -0.91201,1e-5 -1.80001,0.096 -2.664,0.288 -0.864,0.19201 -1.644,0.43201 -2.34,0.72 -0.312,-0.21599 -0.576,-0.53999 -0.792,-0.972 -0.216,-0.45599 -0.324,-0.92399 -0.324,-1.404 0,-0.62399 0.144,-1.11599 0.432,-1.476 0.312,-0.38399 0.78,-0.70798 1.404,-0.972 0.696,-0.26398 1.512,-0.45598 2.448,-0.576 0.95999,-0.11998 1.85999,-0.17998 2.7,-0.18"
       style="font-size:36px;letter-spacing:-2.98000002px;font-family:Baloo;-inkscape-font-specification:Baloo"
       id="path3172" />
    <path
       d="m 463.30953,128.44786 c -10e-6,-0.74399 -0.21601,-1.28399 -0.648,-1.62 -0.40801,-0.35999 -0.97201,-0.53999 -1.692,-0.54 -0.48001,1e-5 -0.96001,0.06 -1.44,0.18 -0.45601,0.12001 -0.85201,0.30001 -1.188,0.54 l 0,12.492 c -0.24,0.072 -0.624,0.144 -1.152,0.216 -0.504,0.072 -1.032,0.108 -1.584,0.108 -0.528,0 -1.008,-0.036 -1.44,-0.108 -0.408,-0.072 -0.756,-0.216 -1.044,-0.432 -0.288,-0.216 -0.516,-0.504 -0.684,-0.864 -0.144,-0.384 -0.216,-0.876 -0.216,-1.476 l 0,-10.8 c 0,-0.64799 0.132,-1.17599 0.396,-1.584 0.288,-0.40799 0.672,-0.77999 1.152,-1.116 0.816,-0.57599 1.836,-1.04398 3.06,-1.404 1.248,-0.35998 2.62799,-0.53998 4.14,-0.54 2.71199,2e-5 4.79999,0.60002 6.264,1.8 1.46398,1.17601 2.19598,2.82001 2.196,4.932 l 0,11.268 c -0.24002,0.072 -0.62402,0.144 -1.152,0.216 -0.50401,0.072 -1.03201,0.108 -1.584,0.108 -0.52801,0 -1.00801,-0.036 -1.44,-0.108 -0.40801,-0.072 -0.75601,-0.216 -1.044,-0.432 -0.28801,-0.216 -0.51601,-0.504 -0.684,-0.864 -0.14401,-0.384 -0.21601,-0.876 -0.216,-1.476 l 0,-8.496"
       style="font-size:36px;letter-spacing:-2.98000002px;font-family:Baloo;-inkscape-font-specification:Baloo"
       id="path3174" />
    <path
       d="m 481.35297,128.44786 c -1e-5,-0.74399 -0.21601,-1.28399 -0.648,-1.62 -0.40801,-0.35999 -0.97201,-0.53999 -1.692,-0.54 -0.48001,1e-5 -0.96,0.06 -1.44,0.18 -0.456,0.12001 -0.852,0.30001 -1.188,0.54 l 0,12.492 c -0.24,0.072 -0.624,0.144 -1.152,0.216 -0.504,0.072 -1.032,0.108 -1.584,0.108 -0.528,0 -1.008,-0.036 -1.44,-0.108 -0.408,-0.072 -0.756,-0.216 -1.044,-0.432 -0.288,-0.216 -0.516,-0.504 -0.684,-0.864 -0.144,-0.384 -0.216,-0.876 -0.216,-1.476 l 0,-10.8 c 0,-0.64799 0.132,-1.17599 0.396,-1.584 0.288,-0.40799 0.672,-0.77999 1.152,-1.116 0.816,-0.57599 1.836,-1.04398 3.06,-1.404 1.248,-0.35998 2.628,-0.53998 4.14,-0.54 2.71199,2e-5 4.79999,0.60002 6.264,1.8 1.46399,1.17601 2.19599,2.82001 2.196,4.932 l 0,11.268 c -0.24001,0.072 -0.62401,0.144 -1.152,0.216 -0.50401,0.072 -1.03201,0.108 -1.584,0.108 -0.52801,0 -1.00801,-0.036 -1.44,-0.108 -0.40801,-0.072 -0.75601,-0.216 -1.044,-0.432 -0.28801,-0.216 -0.51601,-0.504 -0.684,-0.864 -0.14401,-0.384 -0.21601,-0.876 -0.216,-1.476 l 0,-8.496"
       style="font-size:36px;letter-spacing:-2.98000002px;font-family:Baloo;-inkscape-font-specification:Baloo"
       id="path3176" />
    <path
       d="m 488.16442,117.17986 c -1e-5,-0.91198 0.29999,-1.67998 0.9,-2.304 0.62399,-0.62398 1.43999,-0.93598 2.448,-0.936 1.00799,2e-5 1.81199,0.31202 2.412,0.936 0.62399,0.62402 0.93599,1.39202 0.936,2.304 -10e-6,0.91202 -0.31201,1.68002 -0.936,2.304 -0.60001,0.62402 -1.40401,0.93602 -2.412,0.936 -1.00801,2e-5 -1.82401,-0.31198 -2.448,-0.936 -0.60001,-0.62398 -0.90001,-1.39198 -0.9,-2.304 m 6.408,22.32 c -0.26401,0.048 -0.66001,0.108 -1.188,0.18 -0.50401,0.096 -1.02001,0.144 -1.548,0.144 -0.52801,0 -1.00801,-0.036 -1.44,-0.108 -0.40801,-0.072 -0.75601,-0.216 -1.044,-0.432 -0.28801,-0.216 -0.51601,-0.504 -0.684,-0.864 -0.14401,-0.384 -0.21601,-0.876 -0.216,-1.476 l 0,-14.652 c 0.26399,-0.048 0.64799,-0.10798 1.152,-0.18 0.52799,-0.096 1.05599,-0.14398 1.584,-0.144 0.52799,2e-5 0.99599,0.036 1.404,0.108 0.43199,0.072 0.79199,0.21602 1.08,0.432 0.28799,0.21601 0.50399,0.51601 0.648,0.9 0.16799,0.36001 0.25199,0.84001 0.252,1.44 l 0,14.652"
       style="font-size:36px;letter-spacing:-2.98000002px;font-family:Baloo;-inkscape-font-specification:Baloo"
       id="path3178" />
    <path
       d="m 506.54141,128.44786 c -2e-5,-0.74399 -0.21602,-1.28399 -0.648,-1.62 -0.40802,-0.35999 -0.97202,-0.53999 -1.692,-0.54 -0.48001,1e-5 -0.96001,0.06 -1.44,0.18 -0.45601,0.12001 -0.85201,0.30001 -1.188,0.54 l 0,12.492 c -0.24001,0.072 -0.62401,0.144 -1.152,0.216 -0.50401,0.072 -1.03201,0.108 -1.584,0.108 -0.52801,0 -1.00801,-0.036 -1.44,-0.108 -0.40801,-0.072 -0.75601,-0.216 -1.044,-0.432 -0.28801,-0.216 -0.51601,-0.504 -0.684,-0.864 -0.14401,-0.384 -0.21601,-0.876 -0.216,-1.476 l 0,-10.8 c -1e-5,-0.64799 0.13199,-1.17599 0.396,-1.584 0.28799,-0.40799 0.67199,-0.77999 1.152,-1.116 0.81599,-0.57599 1.83599,-1.04398 3.06,-1.404 1.24799,-0.35998 2.62799,-0.53998 4.14,-0.54 2.71198,2e-5 4.79998,0.60002 6.264,1.8 1.46398,1.17601 2.19598,2.82001 2.196,4.932 l 0,11.268 c -0.24002,0.072 -0.62402,0.144 -1.152,0.216 -0.50402,0.072 -1.03202,0.108 -1.584,0.108 -0.52802,0 -1.00802,-0.036 -1.44,-0.108 -0.40802,-0.072 -0.75602,-0.216 -1.044,-0.432 -0.28802,-0.216 -0.51602,-0.504 -0.684,-0.864 -0.14402,-0.384 -0.21602,-0.876 -0.216,-1.476 l 0,-8.496"
       style="font-size:36px;letter-spacing:-2.98000002px;font-family:Baloo;-inkscape-font-specification:Baloo"
       id="path3180" />
    <path
       d="m 522.02885,121.49986 c 1.36799,2e-5 2.60398,0.18002 3.708,0.54 1.12798,0.33602 2.07598,0.78001 2.844,1.332 0.47998,0.33601 0.85198,0.70801 1.116,1.116 0.28798,0.40801 0.43198,0.93601 0.432,1.584 l 0,12.6 c -2e-5,1.272 -0.24002,2.364 -0.72,3.276 -0.48002,0.93599 -1.14002,1.70399 -1.98,2.304 -0.81602,0.62399 -1.78802,1.07999 -2.916,1.368 -1.10401,0.28799 -2.29201,0.43199 -3.564,0.432 -2.18401,-1e-5 -3.90001,-0.30001 -5.148,-0.9 -1.24801,-0.57601 -1.872,-1.52401 -1.872,-2.844 0,-0.552 0.108,-1.044 0.324,-1.476 0.23999,-0.408 0.50399,-0.72 0.792,-0.936 0.69599,0.384 1.47599,0.708 2.34,0.972 0.88799,0.264 1.79999,0.396 2.736,0.396 1.29599,0 2.32799,-0.216 3.096,-0.648 0.76799,-0.432 1.15198,-1.128 1.152,-2.088 l 0,-0.576 c -0.98401,0.432 -2.18401,0.648 -3.6,0.648 -1.08001,0 -2.11201,-0.156 -3.096,-0.468 -0.96001,-0.336 -1.81201,-0.84 -2.556,-1.512 -0.72001,-0.696 -1.308,-1.584 -1.764,-2.664 -0.432,-1.08 -0.648,-2.36399 -0.648,-3.852 0,-1.46399 0.228,-2.73599 0.684,-3.816 0.48,-1.07999 1.12799,-1.96799 1.944,-2.664 0.83999,-0.71999 1.82399,-1.24798 2.952,-1.584 1.15199,-0.35998 2.39999,-0.53998 3.744,-0.54 m 2.232,5.22 c -0.16802,-0.096 -0.42001,-0.19199 -0.756,-0.288 -0.31201,-0.096 -0.70801,-0.14399 -1.188,-0.144 -1.17601,1e-5 -2.06401,0.33601 -2.664,1.008 -0.57601,0.64801 -0.86401,1.58401 -0.864,2.808 -10e-6,1.39201 0.28799,2.40001 0.864,3.024 0.59999,0.6 1.35599,0.9 2.268,0.9 0.98399,0 1.76399,-0.228 2.34,-0.684 l 0,-6.624"
       style="font-size:36px;letter-spacing:-2.98000002px;font-family:Baloo;-inkscape-font-specification:Baloo"
       id="path3182" />
    <path
       d="m 543.48736,121.49986 c 0.98398,2e-5 1.94398,0.14402 2.88,0.432 0.95998,0.26402 1.78798,0.67202 2.484,1.224 0.71998,-0.47998 1.52398,-0.87598 2.412,-1.188 0.91198,-0.31198 2.00398,-0.46798 3.276,-0.468 0.91197,2e-5 1.79997,0.12002 2.664,0.36 0.88797,0.24002 1.66797,0.62402 2.34,1.152 0.69597,0.50401 1.24797,1.18801 1.656,2.052 0.40797,0.84001 0.61197,1.87201 0.612,3.096 l 0,11.34 c -0.24003,0.072 -0.62403,0.144 -1.152,0.216 -0.50403,0.072 -1.03203,0.108 -1.584,0.108 -0.52803,0 -1.00803,-0.036 -1.44,-0.108 -0.40803,-0.072 -0.75603,-0.216 -1.044,-0.432 -0.28803,-0.216 -0.51603,-0.504 -0.684,-0.864 -0.14403,-0.384 -0.21603,-0.876 -0.216,-1.476 l 0,-8.604 c -3e-5,-0.71999 -0.20403,-1.23599 -0.612,-1.548 -0.40803,-0.33599 -0.96002,-0.50399 -1.656,-0.504 -0.33602,1e-5 -0.69602,0.084 -1.08,0.252 -0.38402,0.14401 -0.67202,0.30001 -0.864,0.468 0.024,0.096 0.036,0.19201 0.036,0.288 -2e-5,0.072 -2e-5,0.14401 0,0.216 l 0,11.988 c -0.26402,0.072 -0.66002,0.144 -1.188,0.216 -0.50402,0.072 -1.02002,0.108 -1.548,0.108 -0.52802,0 -1.00802,-0.036 -1.44,-0.108 -0.40802,-0.072 -0.75602,-0.216 -1.044,-0.432 -0.28802,-0.216 -0.51602,-0.504 -0.684,-0.864 -0.14402,-0.384 -0.21602,-0.876 -0.216,-1.476 l 0,-8.604 c -2e-5,-0.71999 -0.22802,-1.23599 -0.684,-1.548 -0.43202,-0.33599 -0.96001,-0.50399 -1.584,-0.504 -0.43201,1e-5 -0.80401,0.072 -1.116,0.216 -0.31201,0.12001 -0.57601,0.24001 -0.792,0.36 l 0,12.636 c -0.24001,0.072 -0.62401,0.144 -1.152,0.216 -0.50401,0.072 -1.03201,0.108 -1.584,0.108 -0.52801,0 -1.00801,-0.036 -1.44,-0.108 -0.40801,-0.072 -0.75601,-0.216 -1.044,-0.432 -0.28801,-0.216 -0.51601,-0.504 -0.684,-0.864 -0.14401,-0.384 -0.21601,-0.876 -0.216,-1.476 l 0,-10.872 c -1e-5,-0.64799 0.13199,-1.16399 0.396,-1.548 0.28799,-0.38399 0.67199,-0.74399 1.152,-1.08 0.81599,-0.57599 1.82399,-1.04398 3.024,-1.404 1.22399,-0.35998 2.49599,-0.53998 3.816,-0.54"
       style="font-size:36px;letter-spacing:-2.98000002px;font-family:Baloo;-inkscape-font-specification:Baloo"
       id="path3184" />
    <path
       d="m 570.05266,135.64786 c 0.40799,0 0.85199,-0.036 1.332,-0.108 0.50399,-0.096 0.87599,-0.216 1.116,-0.36 l 0,-2.88 -2.592,0.216 c -0.67201,0.048 -1.22401,0.192 -1.656,0.432 -0.43201,0.24 -0.64801,0.6 -0.648,1.08 -10e-6,0.48 0.17999,0.876 0.54,1.188 0.38399,0.288 1.01999,0.432 1.908,0.432 m -0.288,-14.148 c 1.29599,2e-5 2.47199,0.13202 3.528,0.396 1.07998,0.26402 1.99198,0.67202 2.736,1.224 0.76798,0.52801 1.35598,1.21201 1.764,2.052 0.40798,0.81601 0.61198,1.78801 0.612,2.916 l 0,8.064 c -2e-5,0.624 -0.18002,1.14 -0.54,1.548 -0.33602,0.384 -0.74402,0.72 -1.224,1.008 -1.56002,0.936 -3.75601,1.404 -6.588,1.404 -1.27201,0 -2.42401,-0.12 -3.456,-0.36 -1.00801,-0.24 -1.88401,-0.6 -2.628,-1.08 -0.72001,-0.48 -1.284,-1.092 -1.692,-1.836 -0.384,-0.744 -0.576,-1.608 -0.576,-2.592 0,-1.65599 0.492,-2.92799 1.476,-3.816 0.98399,-0.88799 2.50799,-1.43999 4.572,-1.656 l 4.716,-0.504 0,-0.252 c -10e-6,-0.69599 -0.31201,-1.18799 -0.936,-1.476 -0.60001,-0.31199 -1.47601,-0.46799 -2.628,-0.468 -0.91201,1e-5 -1.80001,0.096 -2.664,0.288 -0.86401,0.19201 -1.64401,0.43201 -2.34,0.72 -0.31201,-0.21599 -0.57601,-0.53999 -0.792,-0.972 -0.216,-0.45599 -0.324,-0.92399 -0.324,-1.404 0,-0.62399 0.144,-1.11599 0.432,-1.476 0.31199,-0.38399 0.77999,-0.70798 1.404,-0.972 0.69599,-0.26398 1.51199,-0.45598 2.448,-0.576 0.95999,-0.11998 1.85999,-0.17998 2.7,-0.18"
       style="font-size:36px;letter-spacing:-2.98000002px;font-family:Baloo;-inkscape-font-specification:Baloo"
       id="path3186" />
    <path
       d="m 578.44583,130.78786 c 0,-1.58399 0.24,-2.95199 0.72,-4.104 0.48,-1.17599 1.14,-2.14799 1.98,-2.916 0.864,-0.76799 1.86,-1.33198 2.988,-1.692 1.152,-0.38398 2.38799,-0.57598 3.708,-0.576 0.47999,2e-5 0.94799,0.048 1.404,0.144 0.45599,0.072 0.82799,0.16802 1.116,0.288 l 0,-5.832 c 0.23999,-0.072 0.62399,-0.14398 1.152,-0.216 0.52799,-0.096 1.06799,-0.14398 1.62,-0.144 0.52799,2e-5 0.99599,0.036 1.404,0.108 0.43199,0.072 0.79199,0.21602 1.08,0.432 0.28799,0.21602 0.50399,0.51602 0.648,0.9 0.14398,0.36002 0.21598,0.84002 0.216,1.44 l 0,17.064 c -2e-5,1.128 -0.52801,2.028 -1.584,2.7 -0.69601,0.456 -1.59601,0.852 -2.7,1.188 -1.10401,0.36 -2.37601,0.54 -3.816,0.54 -1.56001,0 -2.964,-0.216 -4.212,-0.648 -1.224,-0.432 -2.268,-1.056 -3.132,-1.872 -0.84,-0.816 -1.488,-1.788 -1.944,-2.916 -0.432,-1.152 -0.648,-2.44799 -0.648,-3.888 m 10.224,-4.5 c -1.29601,1e-5 -2.29201,0.37201 -2.988,1.116 -0.696,0.74401 -1.044,1.87201 -1.044,3.384 0,1.48801 0.324,2.616 0.972,3.384 0.648,0.744 1.58399,1.116 2.808,1.116 0.43199,0 0.81599,-0.06 1.152,-0.18 0.35999,-0.144 0.63599,-0.3 0.828,-0.468 l 0,-7.92 c -0.48001,-0.28799 -1.05601,-0.43199 -1.728,-0.432"
       style="font-size:36px;letter-spacing:-2.98000002px;font-family:Baloo;-inkscape-font-specification:Baloo"
       id="path3188" />
    <path
       d="m 606.5676,140.11186 c -1.41601,0 -2.736,-0.192 -3.96,-0.576 -1.2,-0.408 -2.256,-1.008 -3.168,-1.8 -0.888,-0.792 -1.596,-1.788 -2.124,-2.988 -0.504,-1.2 -0.756,-2.60399 -0.756,-4.212 0,-1.58399 0.252,-2.93999 0.756,-4.068 0.528,-1.15199 1.212,-2.08799 2.052,-2.808 0.84,-0.74399 1.8,-1.28398 2.88,-1.62 1.08,-0.35998 2.18399,-0.53998 3.312,-0.54 1.27199,2e-5 2.42399,0.19202 3.456,0.576 1.05599,0.38402 1.95599,0.91201 2.7,1.584 0.76799,0.67201 1.35599,1.47601 1.764,2.412 0.43199,0.93601 0.64798,1.95601 0.648,3.06 -2e-5,0.81601 -0.22801,1.44001 -0.684,1.872 -0.45601,0.43201 -1.09201,0.70801 -1.908,0.828 l -8.892,1.332 c 0.264,0.792 0.804,1.392 1.62,1.8 0.81599,0.384 1.75199,0.576 2.808,0.576 0.98399,0 1.90799,-0.12 2.772,-0.36 0.88799,-0.264 1.60799,-0.564 2.16,-0.9 0.38399,0.24 0.70799,0.576 0.972,1.008 0.26399,0.432 0.39599,0.888 0.396,1.368 -10e-6,1.08 -0.50401,1.884 -1.512,2.412 -0.76801,0.408 -1.63201,0.684 -2.592,0.828 -0.96001,0.144 -1.86001,0.216 -2.7,0.216 m -1.008,-14.148 c -0.57601,1e-5 -1.08001,0.096 -1.512,0.288 -0.408,0.19201 -0.744,0.44401 -1.008,0.756 -0.264,0.28801 -0.468,0.62401 -0.612,1.008 -0.12,0.36001 -0.192,0.73201 -0.216,1.116 l 6.156,-1.008 c -0.072,-0.47999 -0.33601,-0.95999 -0.792,-1.44 -0.45601,-0.47999 -1.12801,-0.71999 -2.016,-0.72"
       style="font-size:36px;letter-spacing:-2.98000002px;font-family:Baloo;-inkscape-font-specification:Baloo"
       id="path3190" />
    <path
       d="m 627.5373,140.11186 c -1.41601,0 -2.73601,-0.192 -3.96,-0.576 -1.20001,-0.408 -2.25601,-1.008 -3.168,-1.8 -0.888,-0.792 -1.596,-1.788 -2.124,-2.988 -0.504,-1.2 -0.756,-2.60399 -0.756,-4.212 0,-1.58399 0.252,-2.93999 0.756,-4.068 0.528,-1.15199 1.212,-2.08799 2.052,-2.808 0.83999,-0.74399 1.79999,-1.28398 2.88,-1.62 1.07999,-0.35998 2.18399,-0.53998 3.312,-0.54 1.27199,2e-5 2.42399,0.19202 3.456,0.576 1.05598,0.38402 1.95598,0.91201 2.7,1.584 0.76798,0.67201 1.35598,1.47601 1.764,2.412 0.43198,0.93601 0.64798,1.95601 0.648,3.06 -2e-5,0.81601 -0.22802,1.44001 -0.684,1.872 -0.45602,0.43201 -1.09202,0.70801 -1.908,0.828 l -8.892,1.332 c 0.26399,0.792 0.80399,1.392 1.62,1.8 0.81599,0.384 1.75199,0.576 2.808,0.576 0.98399,0 1.90799,-0.12 2.772,-0.36 0.88798,-0.264 1.60798,-0.564 2.16,-0.9 0.38398,0.24 0.70798,0.576 0.972,1.008 0.26398,0.432 0.39598,0.888 0.396,1.368 -2e-5,1.08 -0.50402,1.884 -1.512,2.412 -0.76802,0.408 -1.63202,0.684 -2.592,0.828 -0.96001,0.144 -1.86001,0.216 -2.7,0.216 m -1.008,-14.148 c -0.57601,1e-5 -1.08001,0.096 -1.512,0.288 -0.40801,0.19201 -0.74401,0.44401 -1.008,0.756 -0.26401,0.28801 -0.46801,0.62401 -0.612,1.008 -0.12001,0.36001 -0.19201,0.73201 -0.216,1.116 l 6.156,-1.008 c -0.072,-0.47999 -0.33601,-0.95999 -0.792,-1.44 -0.45601,-0.47999 -1.12801,-0.71999 -2.016,-0.72"
       style="font-size:36px;letter-spacing:-2.98000002px;font-family:Baloo;-inkscape-font-specification:Baloo"
       id="path3192" />
    <path
       d="m 642.5511,135.64786 c 0.40799,0 0.85199,-0.036 1.332,-0.108 0.50399,-0.096 0.87599,-0.216 1.116,-0.36 l 0,-2.88 -2.592,0.216 c -0.67201,0.048 -1.22401,0.192 -1.656,0.432 -0.43201,0.24 -0.64801,0.6 -0.648,1.08 -1e-5,0.48 0.17999,0.876 0.54,1.188 0.38399,0.288 1.01999,0.432 1.908,0.432 m -0.288,-14.148 c 1.29599,2e-5 2.47199,0.13202 3.528,0.396 1.07999,0.26402 1.99199,0.67202 2.736,1.224 0.76798,0.52801 1.35598,1.21201 1.764,2.052 0.40798,0.81601 0.61198,1.78801 0.612,2.916 l 0,8.064 c -2e-5,0.624 -0.18002,1.14 -0.54,1.548 -0.33602,0.384 -0.74402,0.72 -1.224,1.008 -1.56001,0.936 -3.75601,1.404 -6.588,1.404 -1.27201,0 -2.42401,-0.12 -3.456,-0.36 -1.008,-0.24 -1.884,-0.6 -2.628,-1.08 -0.72,-0.48 -1.284,-1.092 -1.692,-1.836 -0.384,-0.744 -0.576,-1.608 -0.576,-2.592 0,-1.65599 0.492,-2.92799 1.476,-3.816 0.984,-0.88799 2.508,-1.43999 4.572,-1.656 l 4.716,-0.504 0,-0.252 c -1e-5,-0.69599 -0.31201,-1.18799 -0.936,-1.476 -0.60001,-0.31199 -1.47601,-0.46799 -2.628,-0.468 -0.91201,1e-5 -1.80001,0.096 -2.664,0.288 -0.864,0.19201 -1.644,0.43201 -2.34,0.72 -0.312,-0.21599 -0.576,-0.53999 -0.792,-0.972 -0.216,-0.45599 -0.324,-0.92399 -0.324,-1.404 0,-0.62399 0.144,-1.11599 0.432,-1.476 0.312,-0.38399 0.78,-0.70798 1.404,-0.972 0.696,-0.26398 1.512,-0.45598 2.448,-0.576 0.95999,-0.11998 1.85999,-0.17998 2.7,-0.18"
       style="font-size:36px;letter-spacing:-2.98000002px;font-family:Baloo;-inkscape-font-specification:Baloo"
       id="path3194" />
    <path
       d="m 666.46028,134.31586 c -2e-5,1.824 -0.68402,3.252 -2.052,4.284 -1.36802,1.032 -3.38401,1.548 -6.048,1.548 -1.00801,0 -1.94401,-0.072 -2.808,-0.216 -0.86401,-0.144 -1.60801,-0.36 -2.232,-0.648 -0.60001,-0.312 -1.08,-0.696 -1.44,-1.152 -0.336,-0.456 -0.504,-0.996 -0.504,-1.62 0,-0.576 0.12,-1.056 0.36,-1.44 0.24,-0.408 0.528,-0.744 0.864,-1.008 0.69599,0.384 1.48799,0.732 2.376,1.044 0.91199,0.288 1.95599,0.432 3.132,0.432 0.74399,0 1.30799,-0.108 1.692,-0.324 0.40799,-0.216 0.61199,-0.504 0.612,-0.864 -10e-6,-0.336 -0.14401,-0.6 -0.432,-0.792 -0.28801,-0.192 -0.76801,-0.348 -1.44,-0.468 l -1.08,-0.216 c -2.08801,-0.40799 -3.64801,-1.04399 -4.68,-1.908 -1.008,-0.88799 -1.512,-2.14799 -1.512,-3.78 0,-0.88799 0.192,-1.69199 0.576,-2.412 0.384,-0.71999 0.92399,-1.31999 1.62,-1.8 0.69599,-0.47998 1.52399,-0.85198 2.484,-1.116 0.98399,-0.26398 2.06399,-0.39598 3.24,-0.396 0.88799,2e-5 1.71599,0.072 2.484,0.216 0.79198,0.12002 1.47598,0.31202 2.052,0.576 0.57598,0.26402 1.03198,0.61201 1.368,1.044 0.33598,0.40801 0.50398,0.90001 0.504,1.476 -2e-5,0.55201 -0.10802,1.03201 -0.324,1.44 -0.19202,0.38401 -0.44402,0.70801 -0.756,0.972 -0.19202,-0.11999 -0.48002,-0.23999 -0.864,-0.36 -0.38402,-0.14399 -0.80402,-0.26399 -1.26,-0.36 -0.45601,-0.11999 -0.92401,-0.21599 -1.404,-0.288 -0.45601,-0.072 -0.87601,-0.10799 -1.26,-0.108 -0.79201,1e-5 -1.40401,0.096 -1.836,0.288 -0.43201,0.16801 -0.64801,0.44401 -0.648,0.828 -10e-6,0.26401 0.11999,0.48001 0.36,0.648 0.23999,0.16801 0.69599,0.32401 1.368,0.468 l 1.116,0.252 c 2.30399,0.52801 3.93598,1.26001 4.896,2.196 0.98398,0.91201 1.47598,2.1 1.476,3.564"
       style="font-size:36px;letter-spacing:-2.98000002px;font-family:Baloo;-inkscape-font-specification:Baloo"
       id="path3196" />
    <path
       d="m 668.61255,135.07186 c -0.26401,-0.6 -0.55201,-1.272 -0.864,-2.016 -0.28801,-0.74399 -0.60001,-1.59599 -0.936,-2.556 -0.31201,-0.95999 -0.64801,-2.05199 -1.008,-3.276 -0.336,-1.24799 -0.696,-2.67599 -1.08,-4.284 0.336,-0.33598 0.78,-0.62398 1.332,-0.864 0.57599,-0.26398 1.19999,-0.39598 1.872,-0.396 0.83999,2e-5 1.53599,0.18002 2.088,0.54 0.55199,0.33602 0.95999,0.98401 1.224,1.944 l 2.844,9.9 0.144,0 c 0.28799,-0.816 0.56399,-1.70399 0.828,-2.664 0.28799,-0.95999 0.56399,-1.94399 0.828,-2.952 0.26398,-1.03199 0.50398,-2.05199 0.72,-3.06 0.23998,-1.03199 0.44398,-2.03999 0.612,-3.024 0.86398,-0.45598 1.81198,-0.68398 2.844,-0.684 0.83998,2e-5 1.53598,0.18002 2.088,0.54 0.55198,0.36002 0.82798,0.98401 0.828,1.872 -2e-5,0.64801 -0.084,1.40401 -0.252,2.268 -0.16802,0.84001 -0.39602,1.74001 -0.684,2.7 -0.26402,0.96001 -0.58802,1.95601 -0.972,2.988 -0.36002,1.008 -0.74402,2.004 -1.152,2.988 -0.40802,0.984 -0.82802,1.92 -1.26,2.808 -0.43202,0.864 -0.85202,1.644 -1.26,2.34 -0.67202,1.176 -1.29601,2.136 -1.872,2.88 -0.57601,0.74399 -1.12801,1.31999 -1.656,1.728 -0.52801,0.43199 -1.05601,0.71999 -1.584,0.864 -0.52801,0.16799 -1.08001,0.25199 -1.656,0.252 -1.00801,-1e-5 -1.82401,-0.30001 -2.448,-0.9 -0.62401,-0.60001 -0.99601,-1.38001 -1.116,-2.34 0.76799,-0.6 1.53599,-1.272 2.304,-2.016 0.76799,-0.72 1.46399,-1.464 2.088,-2.232 -0.40801,-0.12 -0.85201,-0.396 -1.332,-0.828 -0.45601,-0.456 -0.96001,-1.296 -1.512,-2.52"
       style="font-size:36px;letter-spacing:-2.98000002px;font-family:Baloo;-inkscape-font-specification:Baloo"
       id="path3198" />
  </g>
  <g
     style="fill:#a94040;fill-opacity:1"
     id="g7364"
     transform="matrix(0.16786827,0,0,-0.16786827,92.291247,126.95996)">
    <g
       style="fill:#a94040;fill-opacity:1"
       id="g7366"
       clip-path="url(#clipPath3340)">
      <g
         style="fill:#a94040;fill-opacity:1"
         id="g7368"
         transform="translate(479.625,63.6318)">
        <path
           inkscape:connector-curvature="0"
           style="fill:#a94040;fill-opacity:1;fill-rule:evenodd;stroke:none"
           id="path7370"
           d="m 6.999,197.976 c -24.452,25.825 -26.061,62.251 -56.993,78.99 -3.776,2.455 -11.846,15.296 -13.276,16.767 -1.678,1.727 -1.907,2.664 -4.721,5.23 -2.04,1.859 -10.999,9.909 -15.998,11.998 -4.094,1.71 -3.156,1.397 -6.594,2.772 -2.637,0.305 -4.375,1.244 -6.187,0.728 -1.688,0 -1.938,0.125 -5,-1.5 -2.932,0.067 -3.313,-2.04 -4.217,-2 -5.099,-3.232 -10.4,-6.264 -16.997,-7.999 -40.433,9.509 -77.363,20.796 -111.987,39.995 -18.237,1.705 -32.018,8.915 -49.993,5 -4.014,-2.201 -5.78,-7.684 -10.999,-8 -4.052,-0.244 -4.326,2.134 -6.597,2.119 -4.26,4.328 -12.065,9.549 -18.4,13.879 -2.998,10.716 -4.331,21.466 0.701,25.556 4.301,-0.174 3.801,1.91 9.298,1.441 5.412,12.853 19.465,10.272 30.996,4 6.622,2.638 11.734,0.057 15.32,-0.531 5.25,-1.688 10.021,1.166 11.677,-4.469 32.99,-3.785 59.109,-20.182 95.988,-18.997 3.566,4.099 5.87,9.461 9.999,12.998 5.69,13.801 2.126,27.293 6.999,36.995 -12.706,8.945 -18.476,27.984 -26.997,42.995 6.044,23.963 -22.341,23.805 -29.996,38.995 0.955,0.139 2.733,1.473 1.999,1 8.974,5.786 28.852,-2.891 38.996,2 5.041,4.67 8.973,4.312 15.998,6.999 1.941,1.317 0,0 2.941,3.15 2.083,1.75 1.902,1.414 3.833,2.75 1.875,3.77 2.751,4 6.084,7.334 3.596,3.597 5.427,7.855 4.979,7.187 0.397,0.592 2.788,5.145 3.354,6.146 0.413,0.729 1.751,4.252 1.75,4.25 0.482,2.507 0.166,1.344 2.083,5.761 0.838,1.034 0.204,1.146 2.75,4.656 3.125,9.375 7.62,18.255 12.221,18.758 7.398,-12.913 7.564,-28.936 4.279,-40.133 1.042,-2.459 0.417,-0.917 1,-2.042 1.656,-0.951 0.654,-0.458 2.313,-1.521 2.355,0.023 2.812,-0.062 5.406,-1.298 14.337,-18.325 30.404,-34.921 51.993,-45.994 0,22.529 4.413,56.677 -4.999,74.991 -0.558,1.888 -7.015,12.438 -6.463,20.989 -0.083,2.75 -3.583,10.166 -3.75,19.75 -5.5,4.75 -3.771,12.48 -11.625,13.625 -0.631,3.163 -2.548,9.829 0.285,14.579 2.125,1.876 4.924,8.712 9.507,13.546 6.333,1.5 10.046,1.5 15.046,1.5 2.037,-0.959 5.329,-0.75 8.079,-1.542 2.768,-0.525 2.5,-0.958 3.919,-1.458 7.288,-6.711 13.539,-22.667 17.998,-23.997 1.875,-1.003 2.375,-2.503 3.458,-3.753 4.917,-11.192 -7.892,-12.53 -7.458,-23.243 0.408,-10.048 5.872,-27.672 7.999,-39.995 6.405,-37.096 23.277,-76.736 15.999,-122.985 -0.165,-1.902 0.377,-0.736 1.71,-4.611 1.498,-19.964 8.314,-31.706 19.287,-46.382 5.665,-7.578 12.213,-16.5 17.998,-22.998" />
      </g>
    </g>
  </g>
</svg>
