<?xml version="1.0" encoding="UTF-8" standalone="no"?>
<!-- Created with Inkscape (http://www.inkscape.org/) -->

<svg
   xmlns:dc="http://purl.org/dc/elements/1.1/"
   xmlns:cc="http://creativecommons.org/ns#"
   xmlns:rdf="http://www.w3.org/1999/02/22-rdf-syntax-ns#"
   xmlns:svg="http://www.w3.org/2000/svg"
   xmlns="http://www.w3.org/2000/svg"
   xmlns:sodipodi="http://sodipodi.sourceforge.net/DTD/sodipodi-0.dtd"
   xmlns:inkscape="http://www.inkscape.org/namespaces/inkscape"
   width="684.65753"
   height="175.91331"
   id="svg2"
   version="1.1"
   inkscape:version="0.48.4 r9939"
   sodipodi:docname="logo.svg">
  <defs
     id="defs4">
    <clipPath
       id="clipPath3456"
       clipPathUnits="userSpaceOnUse">
      <path
         id="path3458"
         d="m 0,841.89 1190.55,0 L 1190.55,0 0,0 0,841.89 z"
         inkscape:connector-curvature="0" />
    </clipPath>
    <clipPath
       id="clipPath3400"
       clipPathUnits="userSpaceOnUse">
      <path
         id="path3402"
         d="m 0,841.89 1190.55,0 L 1190.55,0 0,0 0,841.89 z"
         inkscape:connector-curvature="0" />
    </clipPath>
    <clipPath
       id="clipPath3356"
       clipPathUnits="userSpaceOnUse">
      <path
         id="path3358"
         d="m 0,841.89 1190.55,0 L 1190.55,0 0,0 0,841.89 z"
         inkscape:connector-curvature="0" />
    </clipPath>
    <clipPath
       id="clipPath3340"
       clipPathUnits="userSpaceOnUse">
      <path
         id="path3342"
         d="m 0,841.89 1190.55,0 L 1190.55,0 0,0 0,841.89 z"
         inkscape:connector-curvature="0" />
    </clipPath>
    <clipPath
       id="clipPath3280"
       clipPathUnits="userSpaceOnUse">
      <path
         id="path3282"
         d="m 0,841.89 1190.55,0 L 1190.55,0 0,0 0,841.89 z"
         inkscape:connector-curvature="0" />
    </clipPath>
    <clipPath
       id="clipPath3032"
       clipPathUnits="userSpaceOnUse">
      <path
         id="path3034"
         d="m 0,841.89 1190.55,0 L 1190.55,0 0,0 0,841.89 z"
         inkscape:connector-curvature="0" />
    </clipPath>
    <clipPath
       id="clipPath3018"
       clipPathUnits="userSpaceOnUse">
      <path
         id="path3020"
         d="m 201,98.969 602.925,0 0,639.92 -602.925,0 0,-639.92 z"
         inkscape:connector-curvature="0" />
    </clipPath>
    <clipPath
       id="clipPath4242"
       clipPathUnits="userSpaceOnUse">
      <path
         id="path4244"
         d="m 0,841.89 1190.55,0 L 1190.55,0 0,0 0,841.89 z"
         inkscape:connector-curvature="0" />
    </clipPath>
    <clipPath
       id="clipPath4186"
       clipPathUnits="userSpaceOnUse">
      <path
         id="path4188"
         d="m 0,841.89 1190.55,0 L 1190.55,0 0,0 0,841.89 z"
         inkscape:connector-curvature="0" />
    </clipPath>
    <clipPath
       id="clipPath4144"
       clipPathUnits="userSpaceOnUse">
      <path
         id="path4146"
         d="m 0,841.89 1190.55,0 L 1190.55,0 0,0 0,841.89 z"
         inkscape:connector-curvature="0" />
    </clipPath>
    <clipPath
       id="clipPath4128"
       clipPathUnits="userSpaceOnUse">
      <path
         id="path4130"
         d="m 0,841.89 1190.55,0 L 1190.55,0 0,0 0,841.89 z"
         inkscape:connector-curvature="0" />
    </clipPath>
    <clipPath
       id="clipPath4068"
       clipPathUnits="userSpaceOnUse">
      <path
         id="path4070"
         d="m 0,841.89 1190.55,0 L 1190.55,0 0,0 0,841.89 z"
         inkscape:connector-curvature="0" />
    </clipPath>
    <clipPath
       id="clipPath3820"
       clipPathUnits="userSpaceOnUse">
      <path
         id="path3822"
         d="m 0,841.89 1190.55,0 L 1190.55,0 0,0 0,841.89 z"
         inkscape:connector-curvature="0" />
    </clipPath>
    <clipPath
       id="clipPath3806"
       clipPathUnits="userSpaceOnUse">
      <path
         id="path3808"
         d="m 201,98.969 602.925,0 0,639.92 -602.925,0 0,-639.92 z"
         inkscape:connector-curvature="0" />
    </clipPath>
    <clipPath
       id="clipPath3340-7"
       clipPathUnits="userSpaceOnUse">
      <path
         inkscape:connector-curvature="0"
         id="path3342-2"
         d="m 0,841.89 1190.55,0 L 1190.55,0 0,0 0,841.89 z" />
    </clipPath>
    <clipPath
       id="clipPath7164"
       clipPathUnits="userSpaceOnUse">
      <path
         inkscape:connector-curvature="0"
         id="path7166"
         d="m 0,841.89 1190.55,0 L 1190.55,0 0,0 0,841.89 z" />
    </clipPath>
    <clipPath
       id="clipPath3340-9"
       clipPathUnits="userSpaceOnUse">
      <path
         inkscape:connector-curvature="0"
         id="path3342-4"
         d="m 0,841.89 1190.55,0 L 1190.55,0 0,0 0,841.89 z" />
    </clipPath>
    <clipPath
       id="clipPath7229"
       clipPathUnits="userSpaceOnUse">
      <path
         inkscape:connector-curvature="0"
         id="path7231"
         d="m 0,841.89 1190.55,0 L 1190.55,0 0,0 0,841.89 z" />
    </clipPath>
    <clipPath
       id="clipPath3340-2"
       clipPathUnits="userSpaceOnUse">
      <path
         id="path3342-5"
         d="m 0,841.89 1190.55,0 L 1190.55,0 0,0 0,841.89 z"
         inkscape:connector-curvature="0" />
    </clipPath>
    <clipPath
       id="clipPath7414"
       clipPathUnits="userSpaceOnUse">
      <path
         id="path7416"
         d="m 0,841.89 1190.55,0 L 1190.55,0 0,0 0,841.89 z"
         inkscape:connector-curvature="0" />
    </clipPath>
  </defs>
  <sodipodi:namedview
     id="base"
     pagecolor="#ffffff"
     bordercolor="#666666"
     borderopacity="1.0"
     inkscape:pageopacity="0.0"
     inkscape:pageshadow="2"
     inkscape:zoom="0.98994949"
     inkscape:cx="377.44731"
     inkscape:cy="-56.368615"
     inkscape:document-units="px"
     inkscape:current-layer="layer1"
     showgrid="false"
     inkscape:window-width="1920"
     inkscape:window-height="1056"
     inkscape:window-x="0"
     inkscape:window-y="24"
     inkscape:window-maximized="1"
     fit-margin-top="0"
     fit-margin-left="0"
     fit-margin-right="0"
     fit-margin-bottom="0" />
  <metadata
     id="metadata7">
    <rdf:RDF>
      <cc:Work
         rdf:about="">
        <dc:format>image/svg+xml</dc:format>
        <dc:type
           rdf:resource="http://purl.org/dc/dcmitype/StillImage" />
        <dc:title></dc:title>
      </cc:Work>
    </rdf:RDF>
  </metadata>
  <g
     inkscape:label="Layer 1"
     inkscape:groupmode="layer"
     id="layer1"
     transform="translate(-33.279966,-30.092979)">
    <g
       id="g3336"
       transform="matrix(0.16786827,0,0,-0.16786827,79.084218,152.91659)"
       style="fill:#a94040;fill-opacity:1">
      <g
         id="g3338"
         clip-path="url(#clipPath3340)"
         style="fill:#a94040;fill-opacity:1">
        <g
           id="g3344"
           transform="translate(479.625,63.6318)"
           style="fill:#a94040;fill-opacity:1">
          <path
             inkscape:connector-curvature="0"
             d="m 0,0 c -4.206,-3.23 -9.739,-4.173 -10.999,-3.999 -7.959,3.603 -23.367,9.229 -14.998,19.997 20.98,4.018 25.619,24.375 33.996,40.995 -4.84,19.547 -19.27,36.164 -6.999,50.993 -0.659,25.542 -1.387,43.791 8.999,62.993 -4.015,-0.652 -6.823,-2.51 -9.999,-4 -24.467,-1.139 -57.08,-11.806 -87.989,-12.999 -36.649,-1.413 -69.405,7.026 -99.988,17.999 -1.986,2.012 -1.986,2.012 -1.999,3.999 3.204,9.493 29.444,4.931 41.995,3 14.509,-2.233 29.756,-5.875 42.994,-5.999 40.804,-0.382 76.895,17.534 111.986,24.997 -24.452,25.825 -26.061,62.251 -56.993,78.99 -3.776,2.455 -11.846,15.296 -13.276,16.767 -1.678,1.727 -1.907,2.664 -4.721,5.23 -2.04,1.859 -10.999,9.909 -15.998,11.998 -4.094,1.71 -3.156,1.397 -6.594,2.772 -2.637,0.305 -4.375,1.244 -6.187,0.728 -1.688,0 -1.938,0.125 -5,-1.5 -2.932,0.067 -3.313,-2.04 -4.217,-2 -5.099,-3.232 -10.4,-6.264 -16.997,-7.999 -40.433,9.509 -77.363,20.796 -111.987,39.995 -18.237,1.705 -32.018,8.915 -49.993,5 -4.014,-2.201 -5.78,-7.684 -10.999,-8 -4.052,-0.244 -4.326,2.134 -6.597,2.119 -4.26,4.328 -12.065,9.549 -18.4,13.879 -2.998,10.716 -4.331,21.466 0.701,25.556 4.301,-0.174 3.801,1.91 9.298,1.441 5.412,12.853 19.465,10.272 30.996,4 6.622,2.638 11.734,0.057 15.32,-0.531 5.25,-1.688 10.021,1.166 11.677,-4.469 32.99,-3.785 59.109,-20.182 95.988,-18.997 3.566,4.099 5.87,9.461 9.999,12.998 5.69,13.801 2.126,27.293 6.999,36.995 -12.706,8.945 -18.476,27.984 -26.997,42.995 6.044,23.963 -22.341,23.805 -29.996,38.995 0.955,0.139 2.733,1.473 1.999,1 8.974,5.786 28.852,-2.891 38.996,2 5.041,4.67 8.973,4.312 15.998,6.999 1.941,1.317 0,0 2.941,3.15 2.083,1.75 1.902,1.414 3.833,2.75 1.875,3.77 2.751,4 6.084,7.334 3.596,3.597 5.427,7.855 4.979,7.187 0.397,0.592 2.788,5.145 3.354,6.146 0.413,0.729 1.751,4.252 1.75,4.25 0.482,2.507 0.166,1.344 2.083,5.761 0.838,1.034 0.204,1.146 2.75,4.656 3.125,9.375 7.62,18.255 12.221,18.758 7.398,-12.913 7.564,-28.936 4.279,-40.133 1.042,-2.459 0.417,-0.917 1,-2.042 1.656,-0.951 0.654,-0.458 2.313,-1.521 2.355,0.023 2.812,-0.062 5.406,-1.298 14.337,-18.325 30.404,-34.921 51.993,-45.994 0,22.529 4.413,56.677 -4.999,74.991 -0.558,1.888 -7.015,12.438 -6.463,20.989 -0.083,2.75 -3.583,10.166 -3.75,19.75 -5.5,4.75 -3.771,12.48 -11.625,13.625 -0.631,3.163 -2.548,9.829 0.285,14.579 2.125,1.876 4.924,8.712 9.507,13.546 6.333,1.5 10.046,1.5 15.046,1.5 2.037,-0.959 5.329,-0.75 8.079,-1.542 2.768,-0.525 2.5,-0.958 3.919,-1.458 7.288,-6.711 13.539,-22.667 17.998,-23.997 1.875,-1.003 2.375,-2.503 3.458,-3.753 4.917,-11.192 -7.892,-12.53 -7.458,-23.243 0.408,-10.048 5.872,-27.672 7.999,-39.995 6.405,-37.096 23.277,-76.736 15.999,-122.985 -0.165,-1.902 0.377,-0.736 1.71,-4.611 1.498,-19.964 8.314,-31.706 19.287,-46.382 5.665,-7.578 12.213,-16.5 17.998,-22.998 4.501,-5.057 7.071,-7.936 10.999,-12.998 6.486,-8.363 16.278,-13.255 22.997,-20.997 3.599,-4.15 7.301,-10.392 11.998,-15.998 5.388,-6.432 7.426,-12.71 10.999,-18.998 5.128,-9.028 13.015,-15.32 17.997,-24.997 10.741,-11.257 20.055,-23.941 30.996,-34.995 3.207,-3.916 19.522,-18.189 23.188,-24.428 1.625,-1.75 1.908,-4.34 1.625,-5.875 -0.174,-4.451 -0.609,-9.004 0.375,-10.375 2.75,-3.188 4.121,-4.376 10.809,-5.317 5.679,-0.798 14.709,-4.79 21.996,-6 10.107,-1.676 22.15,0.675 32.32,1.661 8.582,-3.803 7.654,-6.68 8.676,-9.66 1.199,-4.028 -2.02,-5.497 -1.489,-8.653 -0.402,-0.525 0.19,-1.081 -1.187,-1.125 1.904,-3.644 -2.707,-10.831 -10.324,-7.219 -1.028,-2.97 -2.285,-5.713 -5.998,-6 -22.008,10.99 -51.153,14.84 -76.991,21.998 -3.937,5.107 -6.105,3.524 -11.998,9.998 -26.576,-10.918 -61.995,-11.871 -79.99,-28.996 -2.787,-20.211 -28.897,-22.868 -28.575,-46.187 -0.618,-3.985 -1.452,-6.549 -3.25,-11.5 -3.869,-5.341 -3.89,-10.688 -6.125,-13.709 -0.718,-0.51 -1.291,-4.791 -1.045,-6.594 1.295,-7.947 -1.826,-8.112 -2.455,-15.197 -0.125,-4.375 -1.25,-3.75 -10.5,-13.75"
             style="fill:#a94040;fill-opacity:1;fill-rule:evenodd;stroke:none"
             id="path3346" />
        </g>
      </g>
    </g>
    <text
       xml:space="preserve"
       style="font-size:20px;font-style:normal;font-variant:normal;font-weight:normal;font-stretch:normal;line-height:125%;letter-spacing:0px;word-spacing:0px;fill:#000000;fill-opacity:1;stroke:none;font-family:PT Sans;-inkscape-font-specification:PT Sans"
       x="42.714287"
       y="126.36218"
       id="text7047"
       sodipodi:linespacing="125%"><tspan
         sodipodi:role="line"
         id="tspan7049"
         x="42.714287"
         y="126.36218"
         style="font-size:144px;font-style:normal;font-variant:normal;font-weight:normal;font-stretch:normal;letter-spacing:0px;font-family:Nunito;-inkscape-font-specification:Nunito"
         rotate="0 0 0 0 0 0 0 0 0 0">omg-tools</tspan></text>
    <flowRoot
       xml:space="preserve"
       id="flowRoot7134"
       style="font-size:20px;font-style:normal;font-variant:normal;font-weight:normal;font-stretch:normal;line-height:125%;letter-spacing:0px;word-spacing:0px;fill:#000000;fill-opacity:1;stroke:none;font-family:PT Sans;-inkscape-font-specification:PT Sans"><flowRegion
         id="flowRegion7136"><rect
           id="rect7138"
           width="1006.1119"
           height="888.93427"
           x="991.96979"
           y="-173.96301" /></flowRegion><flowPara
         id="flowPara7140" /></flowRoot>    <flowRoot
       xml:space="preserve"
       id="flowRoot7142"
       style="font-size:20px;font-style:normal;font-variant:normal;font-weight:normal;font-stretch:normal;line-height:125%;letter-spacing:0px;word-spacing:0px;fill:#000000;fill-opacity:1;stroke:none;font-family:PT Sans;-inkscape-font-specification:PT Sans"><flowRegion
         id="flowRegion7144"><rect
           id="rect7146"
           width="628.31488"
           height="573.76666"
           x="951.56372"
           y="-333.56711" /></flowRegion><flowPara
         id="flowPara7148" /></flowRoot>    <text
       xml:space="preserve"
       style="font-size:20px;font-style:normal;font-variant:normal;font-weight:normal;font-stretch:normal;line-height:125%;letter-spacing:0px;word-spacing:0px;fill:#000000;fill-opacity:1;stroke:none;font-family:PT Sans;-inkscape-font-specification:PT Sans"
       x="36.769043"
       y="191.1463"
       id="text7055"
       sodipodi:linespacing="125%"><tspan
         sodipodi:role="line"
         id="tspan7057"
         x="36.769043"
         y="191.1463"
         style="font-size:60px;font-style:normal;font-variant:normal;font-weight:normal;font-stretch:normal;letter-spacing:-3.82999992px;font-family:Nunito;-inkscape-font-specification:Nunito">motion planning made easy</tspan></text>
    <g
       style="fill:#a94040;fill-opacity:1"
       transform="matrix(0.16786827,0,0,-0.16786827,78.579141,151.90644)"
       id="g7364">
      <g
         style="fill:#a94040;fill-opacity:1"
         clip-path="url(#clipPath3340)"
         id="g7366">
        <g
           style="fill:#a94040;fill-opacity:1"
           transform="translate(479.625,63.6318)"
           id="g7368">
          <path
             id="path7370"
             style="fill:#a94040;fill-opacity:1;fill-rule:evenodd;stroke:none"
             d="m 6.999,197.976 c -24.452,25.825 -26.061,62.251 -56.993,78.99 -3.776,2.455 -11.846,15.296 -13.276,16.767 -1.678,1.727 -1.907,2.664 -4.721,5.23 -2.04,1.859 -10.999,9.909 -15.998,11.998 -4.094,1.71 -3.156,1.397 -6.594,2.772 -2.637,0.305 -4.375,1.244 -6.187,0.728 -1.688,0 -1.938,0.125 -5,-1.5 -2.932,0.067 -3.313,-2.04 -4.217,-2 -5.099,-3.232 -10.4,-6.264 -16.997,-7.999 -40.433,9.509 -77.363,20.796 -111.987,39.995 -18.237,1.705 -32.018,8.915 -49.993,5 -4.014,-2.201 -5.78,-7.684 -10.999,-8 -4.052,-0.244 -4.326,2.134 -6.597,2.119 -4.26,4.328 -12.065,9.549 -18.4,13.879 -2.998,10.716 -4.331,21.466 0.701,25.556 4.301,-0.174 3.801,1.91 9.298,1.441 5.412,12.853 19.465,10.272 30.996,4 6.622,2.638 11.734,0.057 15.32,-0.531 5.25,-1.688 10.021,1.166 11.677,-4.469 32.99,-3.785 59.109,-20.182 95.988,-18.997 3.566,4.099 5.87,9.461 9.999,12.998 5.69,13.801 2.126,27.293 6.999,36.995 -12.706,8.945 -18.476,27.984 -26.997,42.995 6.044,23.963 -22.341,23.805 -29.996,38.995 0.955,0.139 2.733,1.473 1.999,1 8.974,5.786 28.852,-2.891 38.996,2 5.041,4.67 8.973,4.312 15.998,6.999 1.941,1.317 0,0 2.941,3.15 2.083,1.75 1.902,1.414 3.833,2.75 1.875,3.77 2.751,4 6.084,7.334 3.596,3.597 5.427,7.855 4.979,7.187 0.397,0.592 2.788,5.145 3.354,6.146 0.413,0.729 1.751,4.252 1.75,4.25 0.482,2.507 0.166,1.344 2.083,5.761 0.838,1.034 0.204,1.146 2.75,4.656 3.125,9.375 7.62,18.255 12.221,18.758 7.398,-12.913 7.564,-28.936 4.279,-40.133 1.042,-2.459 0.417,-0.917 1,-2.042 1.656,-0.951 0.654,-0.458 2.313,-1.521 2.355,0.023 2.812,-0.062 5.406,-1.298 14.337,-18.325 30.404,-34.921 51.993,-45.994 0,22.529 4.413,56.677 -4.999,74.991 -0.558,1.888 -7.015,12.438 -6.463,20.989 -0.083,2.75 -3.583,10.166 -3.75,19.75 -5.5,4.75 -3.771,12.48 -11.625,13.625 -0.631,3.163 -2.548,9.829 0.285,14.579 2.125,1.876 4.924,8.712 9.507,13.546 6.333,1.5 10.046,1.5 15.046,1.5 2.037,-0.959 5.329,-0.75 8.079,-1.542 2.768,-0.525 2.5,-0.958 3.919,-1.458 7.288,-6.711 13.539,-22.667 17.998,-23.997 1.875,-1.003 2.375,-2.503 3.458,-3.753 4.917,-11.192 -7.892,-12.53 -7.458,-23.243 0.408,-10.048 5.872,-27.672 7.999,-39.995 6.405,-37.096 23.277,-76.736 15.999,-122.985 -0.165,-1.902 0.377,-0.736 1.71,-4.611 1.498,-19.964 8.314,-31.706 19.287,-46.382 5.665,-7.578 12.213,-16.5 17.998,-22.998"
             inkscape:connector-curvature="0"
             sodipodi:nodetypes="ccccccccccccccccccccccccccccccscccccccccccccccccccccccccccc" />
        </g>
      </g>
    </g>
    <path
       style="fill:none;stroke:#4e4e4e;stroke-width:8;stroke-linecap:round;stroke-linejoin:miter;stroke-miterlimit:4;stroke-opacity:1;stroke-dasharray:none"
       d="m 39.340882,111.55703 c 23.233507,24.74874 56.712588,25.77986 77.276668,13.13198"
       id="path4196"
       inkscape:connector-curvature="0"
       sodipodi:nodetypes="cc" />
    <path
       sodipodi:nodetypes="czzzzzc"
       inkscape:connector-curvature="0"
       id="path4198"
       d="m 116.61755,124.68901 c 20.56408,-12.64788 21.72542,23.05842 46.35189,25.74095 24.62646,2.68252 81.46964,-2.95944 91.62254,-27.3344 10.1529,-24.374956 -2.13824,-52.193031 16.26717,-66.696779 18.40542,-14.503747 53.99786,-17.051132 68.05212,0.670623 14.05426,17.721755 -12.75384,82.011126 11.18417,85.137626 23.938,3.12649 365.25679,2.34452 372.4426,1.36122"
       style="fill:none;stroke:#4e4e4e;stroke-width:8;stroke-linecap:round;stroke-linejoin:miter;stroke-miterlimit:4;stroke-opacity:1;stroke-dasharray:24,24;stroke-dashoffset:45.6" />
  </g>
</svg>
